<svg width="382" height="667" fill="none" xmlns="http://www.w3.org/2000/svg"><g clip-path="url(#clip0)"><path d="M382-12H0v1193c0 12.7 10.297 23 23 23h336c12.703 0 23-10.3 23-23V-12z" fill="#491556"/><mask id="a" maskUnits="userSpaceOnUse" x="0" y="-12" width="382" height="1216"><path d="M382-12H0v1193c0 12.7 10.297 23 23 23h336c12.703 0 23-10.3 23-23V-12z" fill="#fff"/></mask><g mask="url(#a)"><path fill-rule="evenodd" clip-rule="evenodd" d="M439 118c50-40 23.328-13.411 30.127-45.401 6.8-31.99-34.565-69.765-66.547-76.563-31.982-6.798-2.338 37.383-59.18 67.76C286.559 94.173 389 158 439 118zM-16 580.779L394 489s215 270.656 82 474.818C343 1167.98 176 816.784-16 850.498c-192 33.715 0-269.719 0-269.719z" fill="#6BDFFC"/><path d="M178.124 588.297l-1.862-5.704 1.862 5.704zm3.842-7.566l5.704-1.862-5.704 1.862zm-7.566-3.842l1.862 5.704-1.862-5.704zm34.951-8.869l-4.446-4.029 4.446 4.029zm-8.475.418l-4.029 4.446 4.029-4.446zm-.418-8.475l4.447 4.028-4.447-4.028zM179.986 594c6.301-2.056 9.74-8.831 7.684-15.131l-11.408 3.724L179.986 594zm-12.167 2.927A78.934 78.934 0 00179.986 594l-3.724-11.407a67.015 67.015 0 01-10.32 2.482l1.877 11.852zm-13.729-9.975c1.037 6.546 7.183 11.012 13.729 9.975l-1.877-11.852-11.852 1.877zm9.975-13.729c-6.546 1.037-11.012 7.183-9.975 13.729l11.852-1.877-1.877-11.852zm8.473-2.037a55.095 55.095 0 01-8.473 2.037l1.877 11.852a67.015 67.015 0 0010.32-2.482l-3.724-11.407zm15.132 7.683c-2.057-6.3-8.832-9.74-15.132-7.683l3.724 11.407 11.408-3.724zm45.74-72.821c-1.037-6.546-7.184-11.012-13.729-9.975l1.877 11.852 11.852-1.877zm-19.613 66.001c15.595-17.212 23.544-41.182 19.613-66.001l-11.852 1.877c3.341 21.096-3.406 41.445-16.653 56.066l8.892 8.058zm-16.95.835c4.912 4.45 12.501 4.076 16.95-.835l-8.892-8.058-8.058 8.893zm-.835-16.95c-4.45 4.912-4.076 12.5.835 16.95l8.058-8.893-8.893-8.057zm13.694-46.132c2.752 17.376-2.795 34.103-13.694 46.132l8.893 8.057c13.247-14.621 19.994-34.97 16.653-56.066l-11.852 1.877zm9.975-13.729c-6.546 1.036-11.012 7.183-9.975 13.729l11.852-1.877-1.877-11.852z" fill="#F45D5D"/><path fill-rule="evenodd" clip-rule="evenodd" d="M-40 257.736s145.354 247.232 263 181C340.646 372.505 427 279 392 473S30.573 780.905-159 753c-189.573-27.905-235.271-357.802-235.271-357.802s294-238.965 303.397-242.386C-81.478 149.392-40 257.736-40 257.736z" fill="#491556"/><path fill-rule="evenodd" clip-rule="evenodd" d="M-151.541 506.394s2.115-50.135-108.82-47.771c-110.934 2.364-61.258-263.351 144.742-298.351s39 164 313 87 239 56 188 179-258 202-420 139-2.322-74.939-2.322-74.939l-114.6 16.061z" fill="#DC1010"/><mask id="b" maskUnits="userSpaceOnUse" x="-319" y="156" width="740" height="432"><path fill-rule="evenodd" clip-rule="evenodd" d="M-151.541 506.394s2.115-50.135-108.82-47.771c-110.934 2.364-61.258-263.351 144.742-298.351s39 164 313 87 239 56 188 179-258 202-420 139-2.322-74.939-2.322-74.939l-114.6 16.061z" fill="#fff"/></mask><g mask="url(#b)"><path fill-rule="evenodd" clip-rule="evenodd" d="M-78.573 264.373s-13-98 49-134-14 98 98 78 250.932 62.474 250.932 62.474L211.767 374.519 92 406" fill="#491556"/></g><g opacity=".2"><path fill-rule="evenodd" clip-rule="evenodd" d="M39 193.019c0-16.603 12.335-30.618 28.803-32.729L325.1 127.296c18.527-2.376 35.291 11.054 36.762 29.675 2.695 34.125 6.675 90.231 9.138 151.113 4 98.865-24 175.865-24 175.865l-241.12-66.74c-3.234-.896-6.318-2.271-8.983-4.31C83.064 402.316 39 363.422 39 297.364V193.019z" fill="#fff"/><path d="M346.841 482.896c-.06.175-.113.324-.156.447l-240.672-66.616c-3.187-.882-6.208-2.233-8.812-4.225C83.409 401.951 39.5 363.186 39.5 297.364V193.019c0-16.351 12.148-30.154 28.366-32.233l257.297-32.994c18.248-2.34 34.753 10.887 36.2 29.219 2.695 34.12 6.675 90.22 9.137 151.093 1.998 49.382-3.996 93.306-10.49 124.886-3.247 15.789-6.618 28.49-9.177 37.243a311.244 311.244 0 01-3.113 10.058 185.611 185.611 0 01-.879 2.605z" stroke="#fff" stroke-opacity=".09"/></g><mask id="c" maskUnits="userSpaceOnUse" x="39" y="127" width="333" height="357"><path fill-rule="evenodd" clip-rule="evenodd" d="M39 193.019c0-16.603 12.335-30.618 28.803-32.729L325.1 127.296c18.527-2.376 35.291 11.054 36.762 29.675 2.695 34.125 6.675 90.231 9.138 151.113 4 98.865-24 175.865-24 175.865l-241.12-66.74c-3.234-.896-6.318-2.271-8.983-4.31C83.064 402.316 39 363.422 39 297.364V193.019z" fill="#fff"/><path d="M346.841 482.896c-.06.175-.113.324-.156.447l-240.672-66.616c-3.187-.882-6.208-2.233-8.812-4.225C83.409 401.951 39.5 363.186 39.5 297.364V193.019c0-16.351 12.148-30.154 28.366-32.233l257.297-32.994c18.248-2.34 34.753 10.887 36.2 29.219 2.695 34.12 6.675 90.22 9.137 151.093 1.998 49.382-3.996 93.306-10.49 124.886-3.247 15.789-6.618 28.49-9.177 37.243a311.244 311.244 0 01-3.113 10.058 185.611 185.611 0 01-.879 2.605z" stroke="#fff"/></mask><path fill-rule="evenodd" clip-rule="evenodd" d="M-59 68.799S-23.919 45.043 33 75c57 30 101-1 120-47s109-43 109-43L32.552-194-59 68.798z" fill="#DC1010"/></g><path d="M105.035 540.869l.515-5.978-.515 5.978zm6.493-5.464l5.977.515-5.977-.515zm-5.464-6.492l-.514 5.978.514-5.978zm35.638 5.492l-2.519-5.446 2.519 5.446zm-7.964-2.927l-5.446 2.519 5.446-2.519zm2.927-7.964l2.518 5.445-2.518-5.445zm-32.144 23.333c6.603.568 12.416-4.324 12.984-10.927l-11.955-1.029-1.029 11.956zm-12.344-2.06a79.085 79.085 0 0012.344 2.06l1.029-11.956a66.972 66.972 0 01-10.47-1.748l-2.903 11.644zm-8.74-14.547c-1.604 6.431 2.31 12.943 8.74 14.547l2.903-11.644-11.643-2.903zm14.546-8.74c-6.43-1.604-12.943 2.31-14.546 8.74l11.643 2.903 2.903-11.643zm8.596 1.435a54.996 54.996 0 01-8.596-1.435l-2.903 11.643a66.972 66.972 0 0010.47 1.748l1.029-11.956zm10.926 12.985c.569-6.603-4.323-12.417-10.926-12.985l-1.029 11.956 11.955 1.029zm70.558-49.16c1.604-6.431-2.31-12.943-8.74-14.547l-2.903 11.644 11.643 2.903zm-43.842 53.091c21.08-9.751 37.763-28.709 43.842-53.091l-11.643-2.903c-5.168 20.725-19.329 36.82-37.237 45.102l5.038 10.892zm-15.929-5.854c2.782 6.015 9.914 8.636 15.929 5.854l-5.038-10.892-10.891 5.038zm5.854-15.929c-6.015 2.782-8.636 9.914-5.854 15.929l10.891-5.038-5.037-10.891zm30.63-37.114c-4.256 17.07-15.898 30.3-30.63 37.114l5.037 10.891c17.908-8.282 32.069-24.377 37.237-45.102l-11.644-2.903zm14.547-8.741c-6.431-1.603-12.943 2.31-14.547 8.741l11.644 2.903 2.903-11.644z" fill="#fff"/></g><defs><clipPath id="clip0"><path fill="#fff" d="M0-12h382v1216H0z"/></clipPath></defs></svg>