<svg width="382" height="920" viewBox="0 0 382 920" fill="none" xmlns="http://www.w3.org/2000/svg">
<g clip-path="url(#clip0)">
<path d="M382 -12H0V1181C0 1193.7 10.2975 1204 23 1204H359C371.703 1204 382 1193.7 382 1181V-12Z" fill="#491556"/>
<mask id="mask0" mask-type="alpha" maskUnits="userSpaceOnUse" x="0" y="-12" width="382" height="1216">
<path d="M382 -12H0V1181C0 1193.7 10.2975 1204 23 1204H359C371.703 1204 382 1193.7 382 1181V-12Z" fill="white"/>
</mask>
<g mask="url(#mask0)">
<path fill-rule="evenodd" clip-rule="evenodd" d="M439 118C489 78 462.328 104.589 469.127 72.5988C475.927 40.6082 434.562 2.83433 402.58 -3.96372C370.598 -10.7618 400.242 33.4195 343.4 63.7962C286.559 94.1729 389 158 439 118Z" fill="#6BDFFC"/>
<path fill-rule="evenodd" clip-rule="evenodd" d="M-60 914C-60 914 48 858 116 925C184 992 174 1102 396 1153C618 1204 381 935 381 935L8 729L-112 824L-60 914Z" fill="#622572"/>
<path fill-rule="evenodd" clip-rule="evenodd" d="M-16 580.779L394 489C394 489 609 759.656 476 963.818C343 1167.98 176 816.784 -16 850.498C-208 884.213 -16 580.779 -16 580.779Z" fill="#6BDFFC"/>
<path d="M178.124 588.297L176.262 582.593L176.262 582.593L178.124 588.297ZM181.966 580.731L187.67 578.869L181.966 580.731ZM174.4 576.889L176.262 582.593L174.4 576.889ZM209.351 568.02L204.905 563.991L204.905 563.991L209.351 568.02ZM200.876 568.438L196.847 572.884L196.847 572.884L200.876 568.438ZM200.458 559.963L204.905 563.991L204.905 563.991L200.458 559.963ZM179.986 594.001C186.287 591.944 189.726 585.169 187.67 578.869L176.262 582.593L176.262 582.593L179.986 594.001ZM167.819 596.927C172.004 596.265 176.068 595.28 179.986 594.001L176.262 582.593C172.944 583.676 169.498 584.512 165.942 585.075L167.819 596.927ZM154.09 586.952C155.127 593.498 161.273 597.964 167.819 596.927L165.942 585.075L165.942 585.075L154.09 586.952ZM164.065 573.223C157.519 574.26 153.053 580.407 154.09 586.952L165.942 585.075L165.942 585.075L164.065 573.223ZM172.538 571.186C169.82 572.073 166.992 572.759 164.065 573.223L165.942 585.075C169.498 584.512 172.944 583.676 176.262 582.593L172.538 571.186ZM187.67 578.869C185.613 572.569 178.838 569.129 172.538 571.186L176.262 582.593L176.262 582.593L187.67 578.869ZM233.41 506.048C232.373 499.502 226.226 495.036 219.681 496.073L221.558 507.925L221.558 507.925L233.41 506.048ZM213.797 572.049C229.392 554.837 237.341 530.867 233.41 506.048L221.558 507.925C224.899 529.022 218.152 549.37 204.905 563.991L213.797 572.049ZM196.847 572.884C201.759 577.334 209.348 576.96 213.797 572.049L204.905 563.991L204.905 563.991L196.847 572.884ZM196.012 555.934C191.562 560.846 191.936 568.434 196.847 572.884L204.905 563.991L204.905 563.991L196.012 555.934ZM209.706 509.802C212.458 527.178 206.911 543.905 196.012 555.934L204.905 563.991C218.152 549.37 224.899 529.021 221.558 507.925L209.706 509.802ZM219.681 496.073C213.135 497.11 208.669 503.256 209.706 509.802L221.558 507.925H221.558L219.681 496.073Z" fill="#F45D5D"/>
<path fill-rule="evenodd" clip-rule="evenodd" d="M-40 257.736C-40 257.736 105.354 504.968 223 438.736C340.646 372.505 427 279 392 473C357 667 30.5727 780.905 -159 753C-348.573 725.095 -394.271 395.198 -394.271 395.198C-394.271 395.198 -100.271 156.233 -90.8744 152.813C-81.4775 149.392 -40 257.736 -40 257.736Z" fill="#491556"/>
<path fill-rule="evenodd" clip-rule="evenodd" d="M-151.541 506.394C-151.541 506.394 -149.426 456.259 -260.361 458.623C-371.295 460.987 -321.619 195.272 -115.619 160.272C90.3812 125.272 -76.6188 324.272 197.381 247.272C471.381 170.272 436.381 303.272 385.381 426.272C334.381 549.272 127.381 628.272 -34.6188 565.272C-196.619 502.272 -36.9411 490.333 -36.9411 490.333L-151.541 506.394Z" fill="#DC1010"/>
<mask id="mask1" mask-type="alpha" maskUnits="userSpaceOnUse" x="-319" y="156" width="740" height="432">
<path fill-rule="evenodd" clip-rule="evenodd" d="M-151.541 506.394C-151.541 506.394 -149.426 456.259 -260.361 458.623C-371.295 460.987 -321.619 195.272 -115.619 160.272C90.3812 125.272 -76.6188 324.272 197.381 247.272C471.381 170.272 436.381 303.272 385.381 426.272C334.381 549.272 127.381 628.272 -34.6188 565.272C-196.619 502.272 -36.9411 490.333 -36.9411 490.333L-151.541 506.394Z" fill="white"/>
</mask>
<g mask="url(#mask1)">
<path fill-rule="evenodd" clip-rule="evenodd" d="M-78.5726 264.373C-78.5726 264.373 -91.5726 166.373 -29.5726 130.373C32.4274 94.3726 -43.5726 228.373 68.4274 208.373C180.427 188.373 319.359 270.847 319.359 270.847L211.767 374.519L92 406" fill="#491556"/>
</g>
<g opacity="0.2">
<path fill-rule="evenodd" clip-rule="evenodd" d="M39 193.019C39 176.416 51.3349 162.402 67.8027 160.29L325.1 127.296C343.627 124.92 360.391 138.351 361.862 156.972C364.557 191.096 368.537 247.202 371 308.084C375 406.949 347 483.949 347 483.949L105.88 417.209C102.646 416.314 99.5624 414.938 96.8971 412.899C83.0643 402.317 39 363.422 39 297.364C39 253.346 39 216.692 39 193.019Z" fill="white"/>
<path d="M346.841 482.896C346.781 483.071 346.728 483.22 346.685 483.343L106.013 416.727C102.826 415.845 99.8046 414.494 97.2009 412.502C83.409 401.951 39.5 363.186 39.5 297.364V297.106V296.848V296.591V296.334V296.076V295.819V295.563V295.306V295.05V294.793V294.537V294.281V294.025V293.77V293.514V293.259V293.004V292.749V292.494V292.24V291.985V291.731V291.477V291.223V290.969V290.716V290.462V290.209V289.956V289.703V289.451V289.198V288.946V288.694V288.442V288.19V287.939V287.687V287.436V287.185V286.934V286.683V286.433V286.182V285.932V285.682V285.432V285.183V284.933V284.684V284.435V284.186V283.937V283.689V283.44V283.192V282.944V282.696V282.449V282.201V281.954V281.707V281.46V281.213V280.967V280.721V280.474V280.228V279.983V279.737V279.492V279.246V279.001V278.757V278.512V278.267V278.023V277.779V277.535V277.291V277.048V276.805V276.561V276.318V276.076V275.833V275.591V275.348V275.106V274.865V274.623V274.381V274.14V273.899V273.658V273.418V273.177V272.937V272.697V272.457V272.217V271.978V271.738V271.499V271.26V271.021V270.783V270.545V270.306V270.069V269.831V269.593V269.356V269.119V268.882V268.645V268.408V268.172V267.936V267.7V267.464V267.228V266.993V266.758V266.523V266.288V266.053V265.819V265.585V265.351V265.117V264.884V264.65V264.417V264.184V263.951V263.719V263.486V263.254V263.022V262.79V262.559V262.328V262.096V261.865V261.635V261.404V261.174V260.944V260.714V260.484V260.255V260.025V259.796V259.567V259.339V259.11V258.882V258.654V258.426V258.198V257.971V257.744V257.517V257.29V257.063V256.837V256.611V256.385V256.159V255.934V255.708V255.483V255.258V255.034V254.809V254.585V254.361V254.137V253.913V253.69V253.467V253.244V253.021V252.799V252.576V252.354V252.132V251.911V251.689V251.468V251.247V251.026V250.805V250.585V250.365V250.145V249.925V249.706V249.486V249.267V249.048V248.83V248.611V248.393V248.175V247.957V247.74V247.523V247.305V247.089V246.872V246.655V246.439V246.223V246.007V245.792V245.577V245.362V245.147V244.932V244.718V244.503V244.289V244.076V243.862V243.649V243.436V243.223V243.01V242.798V242.586V242.374V242.162V241.951V241.739V241.528V241.317V241.107V240.897V240.686V240.477V240.267V240.057V239.848V239.639V239.431V239.222V239.014V238.806V238.598V238.39V238.183V237.976V237.769V237.562V237.356V237.15V236.944V236.738V236.532V236.327V236.122V235.917V235.713V235.509V235.304V235.101V234.897V234.694V234.49V234.288V234.085V233.882V233.68V233.478V233.277V233.075V232.874V232.673V232.472V232.272V232.071V231.871V231.671V231.472V231.273V231.074V230.875V230.676V230.478V230.28V230.082V229.884V229.687V229.49V229.293V229.096V228.9V228.703V228.507V228.312V228.116V227.921V227.726V227.531V227.337V227.143V226.949V226.755V226.562V226.368V226.175V225.983V225.79V225.598V225.406V225.214V225.023V224.831V224.64V224.45V224.259V224.069V223.879V223.689V223.5V223.31V223.121V222.933V222.744V222.556V222.368V222.18V221.993V221.805V221.618V221.432V221.245V221.059V220.873V220.687V220.502V220.317V220.132V219.947V219.763V219.578V219.394V219.211V219.027V218.844V218.661V218.479V218.296V218.114V217.932V217.751V217.569V217.388V217.207V217.027V216.846V216.666V216.487V216.307V216.128V215.949V215.77V215.591V215.413V215.235V215.058V214.88V214.703V214.526V214.349V214.173V213.997V213.821V213.645V213.47V213.295V213.12V212.945V212.771V212.597V212.423V212.25V212.077V211.904V211.731V211.559V211.386V211.215V211.043V210.872V210.701V210.53V210.359V210.189V210.019V209.849V209.68V209.511V209.342V209.173V209.005V208.836V208.669V208.501V208.334V208.167V208V207.833V207.667V207.501V207.336V207.17V207.005V206.84V206.676V206.511V206.347V206.184V206.02V205.857V205.694V205.531V205.369V205.207V205.045V204.884V204.722V204.561V204.401V204.24V204.08V203.92V203.761V203.601V203.442V203.284V203.125V202.967V202.809V202.651V202.494V202.337V202.18V202.024V201.867V201.711V201.556V201.4V201.245V201.09V200.936V200.782V200.628V200.474V200.321V200.168V200.015V199.862V199.71V199.558V199.406V199.255V199.104V198.953V198.802V198.652V198.502V198.353V198.203V198.054V197.905V197.757V197.609V197.461V197.313V197.166V197.018V196.872V196.725V196.579V196.433V196.287V196.142V195.997V195.852V195.708V195.564V195.42V195.276V195.133V194.99V194.847V194.705V194.563V194.421V194.279V194.138V193.997V193.857V193.716V193.576V193.437V193.297V193.158V193.019C39.5 176.668 51.6479 162.866 67.8663 160.786L325.163 127.792C343.411 125.452 359.916 138.679 361.363 157.011C364.058 191.131 368.038 247.231 370.5 308.104C372.498 357.486 366.504 401.41 360.01 432.99C356.763 448.779 353.392 461.481 350.833 470.233C349.553 474.609 348.477 477.997 347.72 480.291C347.342 481.437 347.044 482.31 346.841 482.896Z" stroke="white" stroke-opacity="0.09"/>
</g>
<mask id="mask2" mask-type="alpha" maskUnits="userSpaceOnUse" x="39" y="127" width="333" height="357">
<path fill-rule="evenodd" clip-rule="evenodd" d="M39 193.019C39 176.416 51.3349 162.402 67.8027 160.29L325.1 127.296C343.627 124.92 360.391 138.351 361.862 156.972C364.557 191.096 368.537 247.202 371 308.084C375 406.949 347 483.949 347 483.949L105.88 417.209C102.646 416.314 99.5624 414.938 96.8971 412.899C83.0643 402.317 39 363.422 39 297.364C39 253.346 39 216.692 39 193.019Z" fill="white"/>
<path d="M346.841 482.896C346.781 483.071 346.728 483.22 346.685 483.343L106.013 416.727C102.826 415.845 99.8046 414.494 97.2009 412.502C83.409 401.951 39.5 363.186 39.5 297.364V297.106V296.848V296.591V296.334V296.076V295.819V295.563V295.306V295.05V294.793V294.537V294.281V294.025V293.77V293.514V293.259V293.004V292.749V292.494V292.24V291.985V291.731V291.477V291.223V290.969V290.716V290.462V290.209V289.956V289.703V289.451V289.198V288.946V288.694V288.442V288.19V287.939V287.687V287.436V287.185V286.934V286.683V286.433V286.182V285.932V285.682V285.432V285.183V284.933V284.684V284.435V284.186V283.937V283.689V283.44V283.192V282.944V282.696V282.449V282.201V281.954V281.707V281.46V281.213V280.967V280.721V280.474V280.228V279.983V279.737V279.492V279.246V279.001V278.757V278.512V278.267V278.023V277.779V277.535V277.291V277.048V276.805V276.561V276.318V276.076V275.833V275.591V275.348V275.106V274.865V274.623V274.381V274.14V273.899V273.658V273.418V273.177V272.937V272.697V272.457V272.217V271.978V271.738V271.499V271.26V271.021V270.783V270.545V270.306V270.069V269.831V269.593V269.356V269.119V268.882V268.645V268.408V268.172V267.936V267.7V267.464V267.228V266.993V266.758V266.523V266.288V266.053V265.819V265.585V265.351V265.117V264.884V264.65V264.417V264.184V263.951V263.719V263.486V263.254V263.022V262.79V262.559V262.328V262.096V261.865V261.635V261.404V261.174V260.944V260.714V260.484V260.255V260.025V259.796V259.567V259.339V259.11V258.882V258.654V258.426V258.198V257.971V257.744V257.517V257.29V257.063V256.837V256.611V256.385V256.159V255.934V255.708V255.483V255.258V255.034V254.809V254.585V254.361V254.137V253.913V253.69V253.467V253.244V253.021V252.799V252.576V252.354V252.132V251.911V251.689V251.468V251.247V251.026V250.805V250.585V250.365V250.145V249.925V249.706V249.486V249.267V249.048V248.83V248.611V248.393V248.175V247.957V247.74V247.523V247.305V247.089V246.872V246.655V246.439V246.223V246.007V245.792V245.577V245.362V245.147V244.932V244.718V244.503V244.289V244.076V243.862V243.649V243.436V243.223V243.01V242.798V242.586V242.374V242.162V241.951V241.739V241.528V241.317V241.107V240.897V240.686V240.477V240.267V240.057V239.848V239.639V239.431V239.222V239.014V238.806V238.598V238.39V238.183V237.976V237.769V237.562V237.356V237.15V236.944V236.738V236.532V236.327V236.122V235.917V235.713V235.509V235.304V235.101V234.897V234.694V234.49V234.288V234.085V233.882V233.68V233.478V233.277V233.075V232.874V232.673V232.472V232.272V232.071V231.871V231.671V231.472V231.273V231.074V230.875V230.676V230.478V230.28V230.082V229.884V229.687V229.49V229.293V229.096V228.9V228.703V228.507V228.312V228.116V227.921V227.726V227.531V227.337V227.143V226.949V226.755V226.562V226.368V226.175V225.983V225.79V225.598V225.406V225.214V225.023V224.831V224.64V224.45V224.259V224.069V223.879V223.689V223.5V223.31V223.121V222.933V222.744V222.556V222.368V222.18V221.993V221.805V221.618V221.432V221.245V221.059V220.873V220.687V220.502V220.317V220.132V219.947V219.763V219.578V219.394V219.211V219.027V218.844V218.661V218.479V218.296V218.114V217.932V217.751V217.569V217.388V217.207V217.027V216.846V216.666V216.487V216.307V216.128V215.949V215.77V215.591V215.413V215.235V215.058V214.88V214.703V214.526V214.349V214.173V213.997V213.821V213.645V213.47V213.295V213.12V212.945V212.771V212.597V212.423V212.25V212.077V211.904V211.731V211.559V211.386V211.215V211.043V210.872V210.701V210.53V210.359V210.189V210.019V209.849V209.68V209.511V209.342V209.173V209.005V208.836V208.669V208.501V208.334V208.167V208V207.833V207.667V207.501V207.336V207.17V207.005V206.84V206.676V206.511V206.347V206.184V206.02V205.857V205.694V205.531V205.369V205.207V205.045V204.884V204.722V204.561V204.401V204.24V204.08V203.92V203.761V203.601V203.442V203.284V203.125V202.967V202.809V202.651V202.494V202.337V202.18V202.024V201.867V201.711V201.556V201.4V201.245V201.09V200.936V200.782V200.628V200.474V200.321V200.168V200.015V199.862V199.71V199.558V199.406V199.255V199.104V198.953V198.802V198.652V198.502V198.353V198.203V198.054V197.905V197.757V197.609V197.461V197.313V197.166V197.018V196.872V196.725V196.579V196.433V196.287V196.142V195.997V195.852V195.708V195.564V195.42V195.276V195.133V194.99V194.847V194.705V194.563V194.421V194.279V194.138V193.997V193.857V193.716V193.576V193.437V193.297V193.158V193.019C39.5 176.668 51.6479 162.866 67.8663 160.786L325.163 127.792C343.411 125.452 359.916 138.679 361.363 157.011C364.058 191.131 368.038 247.231 370.5 308.104C372.498 357.486 366.504 401.41 360.01 432.99C356.763 448.779 353.392 461.481 350.833 470.233C349.553 474.609 348.477 477.997 347.72 480.291C347.342 481.437 347.044 482.31 346.841 482.896Z" stroke="white"/>
</mask>
<g mask="url(#mask2)">
</g>
<path fill-rule="evenodd" clip-rule="evenodd" d="M-59 68.7985C-59 68.7985 -23.9185 45.0429 33 75C90 105 134 74 153 28C172 -18 262 -15 262 -15L32.5524 -194L-59 68.7985Z" fill="#DC1010"/>
</g>
<path d="M105.035 540.869L105.55 534.891L105.55 534.891L105.035 540.869ZM111.528 535.405L117.505 535.92L111.528 535.405ZM106.064 528.913L105.55 534.891L106.064 528.913ZM141.702 534.405L139.183 528.959L139.183 528.959L141.702 534.405ZM133.738 531.478L128.292 533.997L128.292 533.997L133.738 531.478ZM136.665 523.514L139.183 528.959L139.183 528.959L136.665 523.514ZM104.521 546.846C111.124 547.415 116.937 542.523 117.505 535.92L105.55 534.891L105.55 534.891L104.521 546.846ZM92.1771 544.787C96.2885 545.812 100.414 546.493 104.521 546.846L105.55 534.891C102.072 534.591 98.5737 534.014 95.0802 533.143L92.1771 544.787ZM83.4367 530.24C81.8333 536.671 85.7466 543.183 92.1771 544.787L95.0802 533.143L95.0802 533.143L83.4367 530.24ZM97.9833 521.499C91.5527 519.896 85.04 523.809 83.4367 530.24L95.0802 533.143L95.0802 533.143L97.9833 521.499ZM106.579 522.935C103.731 522.69 100.859 522.216 97.9833 521.499L95.0802 533.143C98.5737 534.014 102.072 534.591 105.55 534.891L106.579 522.935ZM117.505 535.92C118.074 529.317 113.182 523.503 106.579 522.935L105.55 534.891L105.55 534.891L117.505 535.92ZM188.063 486.76C189.667 480.329 185.753 473.817 179.323 472.213L176.42 483.857L188.063 486.76ZM144.221 539.851C165.301 530.1 181.984 511.142 188.063 486.76L176.42 483.857C171.252 504.582 157.091 520.677 139.183 528.959L144.221 539.851ZM128.292 533.997C131.074 540.012 138.206 542.633 144.221 539.851L139.183 528.959L139.183 528.959L128.292 533.997ZM134.146 518.068C128.131 520.85 125.51 527.982 128.292 533.997L139.183 528.959L139.183 528.959L134.146 518.068ZM164.776 480.954C160.52 498.024 148.878 511.254 134.146 518.068L139.183 528.959C157.091 520.677 171.252 504.582 176.42 483.857L164.776 480.954ZM179.323 472.213C172.892 470.61 166.38 474.523 164.776 480.954L176.42 483.857L176.42 483.857L179.323 472.213Z" fill="white"/>
</g>
<defs>
<clipPath id="clip0">
<rect y="-12" width="382" height="1216" fill="white"/>
</clipPath>
</defs>
</svg>
