<svg width="311" height="335" fill="none" xmlns="http://www.w3.org/2000/svg"><g opacity=".2"><path fill-rule="evenodd" clip-rule="evenodd" d="M.426 61.571c0-14.941 11.1-27.535 25.92-29.437l242.45-31.107c16.676-2.14 31.768 9.972 33.096 26.732 2.518 31.77 6.298 84.782 8.626 142.366 3.736 92.391-22.416 164.349-22.416 164.349L62.728 272.059c-2.911-.807-5.68-2.041-8.082-3.873C41.889 258.457.426 222.069.426 160.107V61.571z" fill="#fff"/><path d="M287.97 333.496l-.152.433-224.97-62.304c-2.869-.795-5.582-2.007-7.93-3.797C42.199 258.127.877 221.855.877 160.107V61.571c0-14.715 10.932-27.118 25.528-28.99l242.45-31.107c16.424-2.107 31.282 9.82 32.59 26.32 2.517 31.768 6.296 84.773 8.625 142.349 1.866 46.15-3.733 87.2-9.799 116.713-3.032 14.756-6.182 26.626-8.572 34.805a291.654 291.654 0 01-2.907 9.4 173.915 173.915 0 01-.821 2.435z" stroke="#fff" stroke-opacity=".09" stroke-width=".9"/></g></svg>