<svg width="360" height="667" viewBox="0 0 360 667" fill="none" xmlns="http://www.w3.org/2000/svg">
<g clip-path="url(#clip0)">
<path d="M359.792 34C359.792 15.2224 344.57 0 325.792 0H34C15.2223 0 -6.10352e-05 15.2223 -6.10352e-05 34V1115.68C-6.10352e-05 1127.11 9.26764 1136.38 20.7 1136.38H339.092C350.525 1136.38 359.792 1127.11 359.792 1115.68V34Z" fill="#491556"/>
<mask id="mask0" mask-type="alpha" maskUnits="userSpaceOnUse" x="0" y="0" width="360" height="1137">
<path d="M359.792 34C359.792 15.2224 344.57 0 325.792 0H34C15.2223 0 -6.10352e-05 15.2223 -6.10352e-05 34V1115.68C-6.10352e-05 1127.11 9.26764 1136.38 20.7 1136.38H339.092C350.525 1136.38 359.792 1127.11 359.792 1115.68V34Z" fill="white"/>
</mask>
<g mask="url(#mask0)">
<path fill-rule="evenodd" clip-rule="evenodd" d="M410.031 121.488C456.732 84.1069 431.819 108.955 438.17 79.0593C444.521 49.1635 405.886 13.863 376.014 7.51006C346.142 1.15714 373.831 42.4454 320.74 70.8331C267.649 99.2207 363.33 158.868 410.031 121.488Z" fill="#6BDFFC"/>
<path fill-rule="evenodd" clip-rule="evenodd" d="M-14.9443 553.965L368 468.195C368 468.195 568.813 721.128 444.589 911.922C320.366 1102.72 164.386 774.515 -14.9443 806.022C-194.274 837.53 -14.9443 553.965 -14.9443 553.965Z" fill="#6BDFFC"/>
<path d="M166.295 560.776L167.97 565.91L166.295 560.776ZM169.753 553.967L164.619 555.643L169.753 553.967ZM162.944 550.509L161.268 545.376L162.944 550.509ZM195.388 541.893L191.387 538.266L191.387 538.266L195.388 541.893ZM187.761 542.267L184.134 546.268L184.134 546.268L187.761 542.267ZM187.387 534.639L191.387 538.266L191.387 538.266L187.387 534.639ZM167.97 565.91C173.641 564.059 176.737 557.962 174.886 552.292L164.619 555.643L167.97 565.91ZM156.664 568.629C160.553 568.013 164.329 567.098 167.97 565.91L164.619 555.643C161.519 556.655 158.298 557.436 154.975 557.962L156.664 568.629ZM144.308 559.651C145.241 565.543 150.773 569.562 156.664 568.629L154.975 557.962L144.308 559.651ZM153.285 547.295C147.394 548.228 143.375 553.76 144.308 559.651L154.975 557.962L153.285 547.295ZM161.268 545.376C158.708 546.212 156.043 546.858 153.285 547.295L154.975 557.962C158.298 557.436 161.519 556.655 164.619 555.643L161.268 545.376ZM174.886 552.292C173.036 546.622 166.939 543.525 161.268 545.376L164.619 555.643L174.886 552.292ZM217.622 484.208C216.688 478.317 211.156 474.297 205.265 475.23L206.954 485.898L217.622 484.208ZM199.389 545.52C213.883 529.531 221.273 507.265 217.622 484.208L206.954 485.898C210.075 505.602 203.768 524.609 191.387 538.266L199.389 545.52ZM184.134 546.268C188.553 550.274 195.383 549.939 199.389 545.52L191.387 538.266L191.387 538.266L184.134 546.268ZM183.386 531.013C179.38 535.432 179.715 542.262 184.134 546.268L191.387 538.266L191.387 538.266L183.386 531.013ZM196.287 487.587C198.878 503.941 193.653 519.687 183.386 531.013L191.387 538.266C203.768 524.609 210.075 505.602 206.954 485.898L196.287 487.587ZM205.265 475.23C199.374 476.164 195.354 481.696 196.287 487.587L206.954 485.898L205.265 475.23Z" fill="#F45D5D"/>
<path fill-rule="evenodd" clip-rule="evenodd" d="M-37.3606 252.074C-37.3606 252.074 98.4018 483.117 208.284 421.222C318.167 359.328 398.823 271.945 366.132 453.242C333.442 634.539 28.5551 740.986 -148.508 714.908C-325.571 688.83 -368.254 380.535 -368.254 380.535C-368.254 380.535 -93.6547 157.217 -84.8779 154.021C-76.1011 150.824 -37.3606 252.074 -37.3606 252.074Z" fill="#491556"/>
<path fill-rule="evenodd" clip-rule="evenodd" d="M-141.541 484.45C-141.541 484.45 -139.566 437.598 -243.18 439.807C-346.794 442.016 -300.396 193.7 -107.989 160.992C84.4171 128.284 -71.5628 314.253 184.356 242.295C440.276 170.337 407.585 294.628 359.951 409.575C312.316 524.521 118.976 598.348 -32.3343 539.473C-183.644 480.598 -34.5034 469.441 -34.5034 469.441L-141.541 484.45Z" fill="#DC1010"/>
<mask id="mask1" mask-type="alpha" maskUnits="userSpaceOnUse" x="-314" y="134" width="717" height="458">
<path fill-rule="evenodd" clip-rule="evenodd" d="M-141.541 484.45C-141.541 484.45 -139.566 437.598 -243.18 439.807C-346.794 442.016 -300.396 193.7 -107.989 160.992C84.4171 128.284 -71.5628 314.253 184.356 242.295C440.276 170.337 407.585 294.628 359.951 409.575C312.316 524.521 118.976 598.348 -32.3343 539.473C-183.644 480.598 -34.5034 469.441 -34.5034 469.441L-141.541 484.45Z" fill="white"/>
</mask>
<g mask="url(#mask1)">
<path fill-rule="evenodd" clip-rule="evenodd" d="M-73.3877 258.276C-73.3877 258.276 -85.5299 166.693 -27.6212 133.05C30.2875 99.4074 -40.6973 224.633 63.912 205.943C168.521 187.252 298.285 264.326 298.285 264.326L197.793 361.21L85.929 390.63" fill="#491556"/>
</g>
<path fill-rule="evenodd" clip-rule="evenodd" d="M-55.1067 75.5078C-55.1067 75.5078 -22.3402 53.3077 30.8224 81.3033C84.061 109.339 125.158 80.3688 142.904 37.3808C160.65 -5.60712 244.711 -2.80356 244.711 -2.80356L30.4043 -170.083L-55.1067 75.5078Z" fill="#DC1010"/>
</g>
<path d="M98.1097 516.444L97.6463 521.825L97.6463 521.825L98.1097 516.444ZM103.953 511.528L98.5732 511.064L98.5732 511.064L103.953 511.528ZM99.0367 505.684L99.5001 500.304L99.5001 500.304L99.0367 505.684ZM132.269 510.43L130.003 505.528L130.003 505.528L132.269 510.43ZM125.101 507.794L120.2 510.06L120.2 510.06L125.101 507.794ZM127.737 500.627L130.003 505.528L130.003 505.528L127.737 500.627ZM97.6463 521.825C103.589 522.336 108.821 517.934 109.333 511.991L98.5732 511.064L98.5732 511.064L97.6463 521.825ZM86.1767 519.91C89.9972 520.862 93.8302 521.496 97.6463 521.825L98.5732 511.064C95.3235 510.784 92.0542 510.245 88.7894 509.431L86.1767 519.91ZM78.3102 506.818C76.8673 512.605 80.3892 518.467 86.1767 519.91L88.7894 509.431L88.7894 509.431L78.3102 506.818ZM91.4022 498.952C85.6147 497.509 79.7532 501.03 78.3102 506.818L88.7894 509.431L88.7894 509.431L91.4022 498.952ZM99.5001 500.304C96.8167 500.073 94.1112 499.627 91.4022 498.952L88.7894 509.431C92.0542 510.245 95.3235 510.784 98.5732 511.064L99.5001 500.304ZM109.333 511.991C109.845 506.049 105.443 500.816 99.5001 500.304L98.5732 511.064L98.5732 511.064L109.333 511.991ZM175.274 466.018C176.717 460.23 173.195 454.369 167.407 452.926L164.795 463.405L175.274 466.018ZM134.534 515.332C154.123 506.278 169.626 488.669 175.274 466.018L164.795 463.405C159.968 482.763 146.736 497.794 130.003 505.528L134.534 515.332ZM120.2 510.06C122.702 515.474 129.12 517.834 134.534 515.332L130.003 505.528L130.003 505.528L120.2 510.06ZM125.472 495.725C120.057 498.227 117.697 504.645 120.2 510.06L130.003 505.528L130.003 505.528L125.472 495.725ZM154.315 460.792C150.31 476.858 139.347 489.311 125.472 495.725L130.003 505.528C146.736 497.794 159.968 482.762 164.795 463.405L154.315 460.792ZM167.407 452.926C161.62 451.483 155.758 455.005 154.315 460.792L164.795 463.405L167.407 452.926Z" fill="white"/>
</g>
<defs>
<clipPath id="clip0">
<rect width="360" height="1137" fill="white"/>
</clipPath>
</defs>
</svg>
