<svg width="334" height="387" fill="none" xmlns="http://www.w3.org/2000/svg"><path fill-rule="evenodd" clip-rule="evenodd" d="M.797 148.925c0-16.905 12.775-31.066 29.59-32.812l259.191-26.922c17.489-1.816 33.271 10.379 35.344 27.839 3.471 29.246 7.875 74.987 7.875 118.877 0 45.653-7.941 93.741-13.815 123.07-3.229 16.123-18.339 26.642-34.685 24.853L33.976 356.44C18.58 354.756 6.452 342.603 5.2 327.167 3.24 302.961.797 265.2.797 227.224v-78.299z" fill="#F0F6F7"/><path fill-rule="evenodd" clip-rule="evenodd" d="M1.297 71.019c0-16.603 12.335-30.618 28.802-32.73L287.396 5.297c18.527-2.376 35.292 11.054 36.763 29.675 2.694 34.125 6.674 90.231 9.138 151.113 4 98.865-24 175.865-24 175.865l-241.12-66.74c-3.235-.896-6.318-2.271-8.983-4.31C45.36 280.316 1.297 241.422 1.297 175.364V71.019z" fill="#F0F6F7"/></svg>