<svg width="181" height="129" fill="none" xmlns="http://www.w3.org/2000/svg">
	<path d="M16.002.775C8.706 4.15 5.312 8.81 4.484 14.462M8.923 12.117c2.501-5.11 3.616-4.996 6.846-7.146M157.359 106.856c7.109-3.751 10.255-8.582 10.786-14.27M163.835 95.16c-2.231 5.233-3.35 5.178-6.462 7.494" stroke="#282A39" stroke-width=".755"/>
	<path d="M18.716 15.567c.598-3.655 3.269-6.551 6.866-7.418 10.055-2.423 31.822-6.771 58.551-6.771 27.642 0 55.752 4.65 68.263 7.015 3.949.747 6.982 3.829 7.634 7.791 1.341 8.142 3.313 22.45 3.313 36.2 0 14.434-3.71 29.836-5.984 37.921-.965 3.427-3.771 5.946-7.278 6.59-10.618 1.949-34.401 5.693-60.358 5.693-25.73 0-49.75-3.679-60.734-5.641-3.727-.666-6.66-3.433-7.516-7.118-1.884-8.104-4.88-22.972-5.414-37.459-.531-14.419 1.363-28.89 2.657-36.803z" fill="#fff" stroke="#616161" stroke-width=".755"/>
	<mask id="a" maskUnits="userSpaceOnUse" x="15" y="1" width="149" height="102">
		<path d="M18.716 15.567c.598-3.655 3.269-6.551 6.866-7.418 10.055-2.423 31.822-6.771 58.551-6.771 27.642 0 55.752 4.65 68.263 7.015 3.949.747 6.982 3.829 7.634 7.791 1.341 8.142 3.313 22.45 3.313 36.2 0 14.434-3.71 29.836-5.984 37.921-.965 3.427-3.771 5.946-7.278 6.59-10.618 1.949-34.401 5.693-60.358 5.693-25.73 0-49.75-3.679-60.734-5.641-3.727-.666-6.66-3.433-7.516-7.118-1.884-8.104-4.88-22.972-5.414-37.459-.531-14.419 1.363-28.89 2.657-36.803z" fill="#fff" stroke="#fff" stroke-width=".755"/>
	</mask>
	<g mask="url(#a)">
		<rect x="33" y="97" width="6" height="6" rx="2" fill="#6BDFFC"/>
		<path d="M31.378 21.31c0-3.857 2.812-7.12 6.63-7.588 7.228-.885 19.114-2.108 30.943-2.306 11.703-.196 23.506.609 30.787 1.249 3.931.345 6.884 3.658 6.884 7.616v4.393a7.812 7.812 0 01-7.681 7.811l-59.62.998a7.812 7.812 0 01-7.943-7.811V21.31zM113.378 18.31c0-3.857 2.812-7.12 6.63-7.588 7.228-.885 19.114-2.108 30.943-2.306 11.703-.196 23.506.609 30.787 1.249 3.931.345 6.884 3.658 6.884 7.616v4.393a7.812 7.812 0 01-7.681 7.811l-59.62.998a7.812 7.812 0 01-7.943-7.811V18.31z" stroke="#CCDBDE" stroke-width=".755"/>
		<g filter="url(#filter0_d)">
			<path fill-rule="evenodd" clip-rule="evenodd" d="M24 49.435c0-4.096 3.02-7.553 7.093-8.002 8.091-.89 22-2.19 35.844-2.395 13.73-.203 27.576.668 35.732 1.317 4.177.333 7.331 3.837 7.331 8.027v4.276a8.19 8.19 0 01-8.069 8.19l-69.62 1.03A8.19 8.19 0 0124 53.687v-4.253z" fill="#B2ADE3"/>
			</g>
			<path d="M10.378 77.266c0-3.839 2.784-7.09 6.58-7.573 6.963-.883 18.257-2.081 29.495-2.277 11.11-.194 22.314.59 29.325 1.226 3.914.356 6.844 3.66 6.844 7.603v4.434a7.812 7.812 0 01-7.676 7.812l-56.62.986a7.812 7.812 0 01-7.948-7.811v-4.4z" stroke="#CCDBDE" stroke-width=".755"/>
			<path d="M52.08 22.915h-1.085v2.215h-1.19v-5.778h2.547c.66 0 1.173.158 1.54.473.374.31.56.747.56 1.313 0 .414-.102.762-.306 1.042-.204.28-.496.481-.875.604l1.523 2.346h-1.357l-1.357-2.215zm-1.085-.919h1.199c.35 0 .607-.067.77-.201.17-.14.254-.353.254-.64 0-.285-.084-.495-.254-.63-.163-.14-.42-.21-.77-.21h-1.2v1.681zm8.63.928a3.1 3.1 0 01-.034.473h-3.1c.123.618.488.928 1.095.928.251 0 .458-.047.622-.14a.747.747 0 00.341-.403l.98.359c-.14.35-.376.618-.709.805-.326.181-.738.271-1.234.271-.724 0-1.284-.198-1.68-.595-.398-.402-.596-.963-.596-1.68 0-.718.193-1.276.578-1.673.385-.402.928-.604 1.628-.604.677 0 1.197.196 1.558.587.368.39.552.948.552 1.672zm-2.118-1.375c-.291 0-.525.085-.7.254-.17.17-.277.42-.324.753h2.04c-.047-.327-.158-.575-.333-.744-.175-.175-.402-.263-.683-.263zm4.824 3.669c-.974 0-1.651-.28-2.03-.84l.7-.719c.116.251.283.43.498.534.222.1.494.15.815.15.257 0 .455-.036.595-.106.14-.07.21-.166.21-.289 0-.099-.067-.184-.201-.254-.129-.07-.353-.137-.674-.201-.672-.134-1.144-.31-1.419-.525-.268-.222-.402-.52-.402-.893 0-.245.076-.476.227-.692.152-.216.377-.388.675-.516.297-.134.653-.202 1.067-.202.49 0 .888.076 1.191.228.303.146.557.38.762.7l-.745.63a1.294 1.294 0 00-.48-.516c-.188-.11-.424-.166-.71-.166-.24 0-.432.04-.578.122-.14.082-.21.181-.21.298 0 .123.07.225.21.306.14.082.388.158.744.228.636.128 1.086.298 1.349.508.268.204.402.49.402.858 0 .408-.175.738-.525.989-.344.245-.835.367-1.47.367zm7.024-2.294a3.1 3.1 0 01-.035.473h-3.1c.123.618.488.928 1.095.928.25 0 .458-.047.621-.14a.747.747 0 00.342-.403l.98.359c-.14.35-.376.618-.709.805-.327.181-.738.271-1.234.271-.724 0-1.284-.198-1.68-.595-.398-.402-.596-.963-.596-1.68 0-.718.192-1.276.578-1.673.385-.402.928-.604 1.628-.604.677 0 1.196.196 1.558.587.368.39.552.948.552 1.672zm-2.119-1.375c-.292 0-.525.085-.7.254-.17.17-.277.42-.324.753h2.04c-.047-.327-.158-.575-.333-.744-.175-.175-.403-.263-.683-.263zm7.126 2.854c.123 0 .222-.011.298-.035l-.088.727a1.257 1.257 0 01-.569.123c-.56 0-.895-.22-1.006-.657-.129.216-.327.38-.596.49a2.49 2.49 0 01-.954.167c-.426 0-.758-.097-.998-.29-.24-.192-.359-.47-.359-.831 0-.712.57-1.173 1.707-1.383l1.05-.201v-.21c0-.234-.066-.418-.2-.552-.129-.14-.31-.21-.543-.21-.269 0-.488.058-.657.175-.17.117-.286.306-.35.569l-.954-.403a1.45 1.45 0 01.63-.893c.327-.216.753-.324 1.278-.324.625 0 1.112.137 1.462.412.35.268.525.668.525 1.2v1.794c0 .116.027.201.08.254.052.052.133.078.244.078zm-2.538 0c.256 0 .49-.06.7-.183.216-.129.324-.301.324-.517v-.455l-.937.21c-.198.047-.347.11-.446.193a.394.394 0 00-.14.323c0 .14.043.248.13.324.088.07.211.105.369.105zm6.042-3.738c.204 0 .362.033.473.097l-.15 1.05c-.133-.087-.317-.131-.55-.131-.287 0-.535.105-.745.315-.204.204-.306.493-.306.867v2.267h-1.2v-4.377h1.042l.079.858c.24-.63.692-.946 1.357-.946zm3.135 0c.578 0 1.027.117 1.348.35.321.234.54.546.657.937l-1.12.403c-.106-.531-.389-.797-.85-.797-.344 0-.61.12-.797.36-.18.233-.271.577-.271 1.032 0 .455.093.8.28 1.033.187.228.447.342.78.342.513 0 .816-.26.91-.78l1.085.35a1.568 1.568 0 01-.656.964c-.339.239-.78.358-1.322.358-.724 0-1.284-.198-1.681-.595-.397-.402-.595-.963-.595-1.68 0-.718.195-1.276.586-1.673.397-.402.945-.604 1.646-.604zm5.588 0c.473 0 .852.137 1.138.412.292.274.438.668.438 1.182v2.871h-1.2v-2.521c0-.666-.26-.998-.779-.998-.28 0-.52.099-.718.297-.192.199-.288.502-.288.91v2.312h-1.2v-6.294h1.2v2.661a1.36 1.36 0 01.56-.622c.245-.14.528-.21.849-.21zM131.882 16.265c.537 0 .998.09 1.383.271.385.175.724.455 1.015.84l-.831.815c-.152-.316-.353-.549-.604-.7-.251-.158-.569-.237-.955-.237-.35 0-.621.067-.814.201a.599.599 0 00-.28.517c0 .198.096.356.289.473.193.116.54.218 1.042.306.525.1.942.222 1.252.368.309.146.534.33.674.551.146.216.219.487.219.814 0 .356-.103.665-.307.928-.198.257-.478.455-.84.595-.356.14-.765.21-1.226.21-.636 0-1.158-.087-1.567-.262a2.334 2.334 0 01-.98-.814l.718-.858c.215.356.464.604.744.744.28.134.627.201 1.041.201.374 0 .657-.058.85-.175a.55.55 0 00.297-.499c0-.157-.093-.289-.28-.394-.181-.105-.508-.204-.98-.297-.543-.111-.978-.242-1.305-.394-.321-.152-.554-.339-.7-.56-.146-.222-.219-.497-.219-.823 0-.345.093-.654.28-.928.187-.28.458-.5.814-.657.362-.158.785-.236 1.27-.236zm5.389 3.93l-.797.85v1.085h-1.199v-6.294h1.199v3.913l1.9-1.996h1.356l-1.645 1.716 1.751 2.661h-1.357l-1.208-1.935zm7.144-.271c0 .163-.011.32-.035.473h-3.099c.123.618.488.928 1.095.928.251 0 .458-.047.621-.14a.75.75 0 00.342-.403l.98.359c-.14.35-.376.618-.709.805-.327.181-.738.271-1.234.271-.724 0-1.284-.198-1.681-.595-.397-.402-.596-.963-.596-1.68 0-.718.193-1.276.578-1.673.385-.402.928-.604 1.629-.604.677 0 1.196.196 1.558.587.367.39.551.948.551 1.672zm-2.118-1.375c-.292 0-.525.085-.701.254-.169.17-.277.42-.323.753h2.039c-.046-.327-.157-.575-.332-.744-.175-.175-.403-.263-.683-.263zm6.051 3.31c-.14.11-.318.198-.534.262-.21.064-.432.097-.665.097-.975 0-1.462-.441-1.462-1.322v-2.25h-.797v-.893h.797v-1.007l1.199-.332v1.339h1.418v.893h-1.418v2.057c0 .403.201.604.604.604.257 0 .482-.082.674-.245l.184.797zm2.755-4.194c.578 0 1.027.117 1.348.35.321.234.54.546.657.937l-1.121.403c-.105-.531-.388-.797-.849-.797-.344 0-.61.12-.797.36-.18.233-.271.577-.271 1.032 0 .455.093.8.28 1.033.187.228.447.342.779.342.514 0 .817-.26.911-.78l1.085.35a1.567 1.567 0 01-.656.964c-.339.239-.779.358-1.322.358-.724 0-1.284-.198-1.681-.595-.397-.402-.595-.963-.595-1.68 0-.718.195-1.276.586-1.673.397-.402.946-.604 1.646-.604zm5.588 0c.473 0 .852.137 1.138.412.292.274.438.668.438 1.182v2.871h-1.199v-2.521c0-.666-.26-.998-.779-.998-.281 0-.52.099-.718.297-.193.199-.289.502-.289.91v2.312h-1.2v-6.294h1.2v2.661a1.36 1.36 0 01.56-.622c.245-.14.528-.21.849-.21zm6.9 2.259c0 .163-.012.32-.035.473h-3.099c.122.618.487.928 1.094.928.251 0 .458-.047.622-.14a.748.748 0 00.341-.403l.98.359c-.14.35-.376.618-.709.805-.326.181-.738.271-1.234.271-.724 0-1.284-.198-1.681-.595-.397-.402-.595-.963-.595-1.68 0-.718.193-1.276.578-1.673.385-.402.928-.604 1.628-.604.677 0 1.196.196 1.558.587.368.39.552.948.552 1.672zm-2.119-1.375c-.292 0-.525.085-.7.254-.169.17-.277.42-.324.753h2.04c-.047-.327-.158-.575-.333-.744-.175-.175-.403-.263-.683-.263zm4.824 3.669c-.975 0-1.652-.28-2.031-.84l.7-.719c.117.251.283.43.499.534.222.1.494.15.815.15.256 0 .455-.036.595-.106.14-.07.21-.166.21-.289 0-.099-.067-.184-.201-.254-.129-.07-.353-.137-.674-.201-.672-.134-1.144-.31-1.419-.525-.268-.222-.402-.52-.402-.893 0-.245.076-.476.227-.692.152-.216.377-.388.674-.516.298-.134.654-.202 1.068-.202.491 0 .887.076 1.191.228.303.146.557.38.762.7l-.745.63a1.289 1.289 0 00-.481-.516c-.187-.11-.423-.166-.709-.166-.239 0-.432.04-.578.122-.14.082-.21.181-.21.298 0 .123.07.225.21.306.14.082.388.158.744.228.636.128 1.086.298 1.348.508.269.204.403.49.403.858 0 .408-.175.738-.525.989-.345.245-.835.367-1.471.367z" fill="#282A39"/>
			<path d="M90.378 77.436c0-3.91 2.88-7.2 6.756-7.628 8.086-.89 21.982-2.188 35.809-2.392 13.712-.203 27.545.667 35.696 1.316 3.975.316 6.983 3.651 6.983 7.65v4.276a7.812 7.812 0 01-7.696 7.812l-69.62 1.03a7.812 7.812 0 01-7.928-7.812v-4.252z" stroke="#CCDBDE" stroke-width=".755"/>
			<path d="M114.178 75.222c.671 0 1.193.164 1.567.49.373.322.56.777.56 1.366 0 .572-.187 1.019-.56 1.34-.374.32-.896.481-1.567.481h-1.217V81h-1.208v-5.778h2.425zm-.184 2.74c.373 0 .648-.073.823-.219.175-.151.262-.376.262-.674 0-.297-.087-.52-.262-.665-.175-.146-.45-.219-.823-.219h-1.033v1.777h1.033zm5.773-1.427c.204 0 .362.032.473.097l-.149 1.05c-.134-.087-.318-.131-.551-.131-.286 0-.534.105-.745.315-.204.204-.306.493-.306.867V81h-1.199v-4.377h1.042l.078.858c.24-.63.692-.946 1.357-.946zm3.144 0c.706 0 1.255.202 1.646.604.397.403.595.96.595 1.672s-.198 1.27-.595 1.672c-.391.403-.94.605-1.646.605s-1.258-.202-1.655-.604c-.391-.403-.586-.96-.586-1.672 0-.713.195-1.27.586-1.673.397-.402.949-.604 1.655-.604zm0 .893c-.339 0-.598.117-.779.35-.175.228-.263.572-.263 1.033 0 .461.088.809.263 1.042.181.228.44.342.779.342.338 0 .595-.114.77-.342.181-.233.272-.58.272-1.041 0-.462-.091-.806-.272-1.034-.175-.233-.432-.35-.77-.35zm6.221 3.3c-.14.112-.318.199-.534.263-.21.064-.432.097-.665.097-.975 0-1.462-.441-1.462-1.322v-2.25h-.797v-.893h.797v-1.007l1.199-.332v1.339h1.418v.893h-1.418v2.057c0 .403.202.604.604.604.257 0 .482-.082.674-.245l.184.797zm2.764-4.193c.706 0 1.255.202 1.646.604.397.403.595.96.595 1.672s-.198 1.27-.595 1.672c-.391.403-.94.605-1.646.605s-1.258-.202-1.655-.604c-.391-.403-.586-.96-.586-1.672 0-.713.195-1.27.586-1.673.397-.402.949-.604 1.655-.604zm0 .893c-.339 0-.598.117-.779.35-.175.228-.263.572-.263 1.033 0 .461.088.809.263 1.042.181.228.44.342.779.342.338 0 .595-.114.77-.342.181-.233.272-.58.272-1.041 0-.462-.091-.806-.272-1.034-.175-.233-.432-.35-.77-.35zm6.221 3.3c-.14.112-.318.199-.534.263-.21.064-.432.097-.665.097-.975 0-1.462-.441-1.462-1.322v-2.25h-.797v-.893h.797v-1.007l1.199-.332v1.339h1.418v.893h-1.418v2.057c0 .403.202.604.604.604.257 0 .482-.082.674-.245l.184.797zm3.175.543c-.216.596-.466 1.013-.752 1.252-.281.24-.657.36-1.13.36-.472 0-.843-.115-1.112-.342l.298-.85a.69.69 0 00.307.21c.116.041.259.062.428.062a.763.763 0 00.438-.114c.111-.076.204-.213.28-.411l.158-.377-.482-1.138-1.339-3.3h1.331l.823 2.626.236.876.263-.928.805-2.574h1.217l-1.769 4.648zm5.022-4.736c.584 0 1.042.202 1.375.604.332.397.499.952.499 1.664 0 .718-.167 1.278-.499 1.68-.333.403-.791.605-1.375.605a1.57 1.57 0 01-.823-.21 1.55 1.55 0 01-.551-.596v2.556h-1.2v-6.215h1.06l.043.867c.129-.292.319-.523.569-.692.257-.175.558-.263.902-.263zm-.359 3.633c.327 0 .581-.116.762-.35.181-.233.271-.569.271-1.007 0-.437-.09-.773-.271-1.006-.181-.234-.435-.35-.762-.35a.902.902 0 00-.709.306c-.181.198-.283.484-.306.858v.385c.023.368.125.654.306.858a.902.902 0 00.709.306zm7.379-1.374c0 .163-.011.32-.035.473H150.2c.123.618.488.928 1.094.928.251 0 .459-.047.622-.14a.747.747 0 00.341-.403l.981.359a1.57 1.57 0 01-.709.805c-.327.181-.738.272-1.235.272-.723 0-1.283-.199-1.68-.596-.397-.402-.596-.963-.596-1.68 0-.718.193-1.276.578-1.673.385-.402.928-.604 1.628-.604.677 0 1.197.196 1.559.587.367.39.551.948.551 1.672zm-2.118-1.374c-.292 0-.526.084-.701.253-.169.17-.277.42-.324.753h2.04c-.047-.327-.157-.575-.332-.744a.926.926 0 00-.683-.263z" fill="#282A39"/>
			<rect opacity=".5" x="97" y="75" width="8" height="8" rx="2" fill="#665CC8"/>
			<path d="M15.316 3.924C8.56 8.28 5.848 13.367 5.816 19.08M9.25 15.822c1.766-5.407 2.885-5.45 5.784-8.028M155.446 105.033c5.738-3.126 5.703-3.709 8.304-7.124M159.814 105.459c2.277-1.359 3.585-2.114 4.967-4.144" stroke="#282A39" stroke-width=".755"/>
			<path d="M115.378 48.435c0-3.85 2.797-7.108 6.606-7.585 7.397-.926 19.711-2.224 31.965-2.432 12.121-.207 24.345.65 31.801 1.32 3.924.354 6.872 3.664 6.872 7.616v5.267a7.812 7.812 0 01-7.679 7.811l-61.62 1.049a7.812 7.812 0 01-7.945-7.812v-5.234z" stroke="#CCDBDE" stroke-width=".755"/>
			<path d="M134.258 53h-1.392l-1.681-5.778h1.305l1.12 4.824 1.156-4.824h1.155l1.173 4.824 1.121-4.824h1.243L137.777 53h-1.357l-.805-3.151-.271-1.366h-.018l-.271 1.366-.797 3.151zm6.613-5.007c-.496 0-.744-.213-.744-.64 0-.431.248-.647.744-.647s.744.216.744.647c0 .427-.248.64-.744.64zm.595 5.007h-1.199v-4.377h1.199V53zm3.749-4.465c.204 0 .362.033.473.097l-.149 1.05c-.134-.087-.318-.131-.552-.131-.286 0-.534.105-.744.315-.204.204-.306.493-.306.867V53h-1.2v-4.377h1.042l.079.858c.239-.63.692-.946 1.357-.946zm5.218 2.259c0 .163-.011.32-.035.473h-3.099c.123.618.488.928 1.095.928.251 0 .458-.047.621-.14a.749.749 0 00.342-.403l.98.359c-.14.35-.376.618-.709.805-.327.181-.738.271-1.234.271-.724 0-1.284-.198-1.681-.595-.397-.402-.595-.963-.595-1.68 0-.718.192-1.276.577-1.673.385-.402.928-.604 1.629-.604.677 0 1.196.196 1.558.587.367.39.551.948.551 1.672zm-2.118-1.374c-.292 0-.525.084-.701.253-.169.17-.277.42-.323.753h2.039c-.046-.327-.157-.575-.332-.744-.175-.175-.403-.263-.683-.263zm4.562-.797h1.383v.893h-1.331V53h-1.199v-3.484h-.762v-.893h.762v-.525c0-.479.149-.844.446-1.095.298-.256.701-.385 1.208-.385.193 0 .368.02.526.061.163.041.291.097.385.167l-.167.796a.892.892 0 00-.498-.13c-.502 0-.753.224-.753.673v.438zm4.58-.088c.204 0 .362.033.473.097l-.149 1.05c-.134-.087-.318-.131-.552-.131-.286 0-.534.105-.744.315-.204.204-.306.493-.306.867V53h-1.199v-4.377h1.041l.079.858c.239-.63.692-.946 1.357-.946zm5.14 3.738c.122 0 .221-.011.297-.035l-.087.727a1.258 1.258 0 01-.569.122c-.561 0-.896-.218-1.007-.656a1.2 1.2 0 01-.595.49c-.269.111-.587.166-.955.166-.426 0-.758-.096-.998-.288-.239-.193-.359-.47-.359-.832 0-.712.57-1.173 1.708-1.383l1.05-.202v-.21c0-.233-.067-.417-.201-.551-.129-.14-.31-.21-.543-.21-.269 0-.487.058-.657.175-.169.117-.286.306-.35.569l-.954-.403c.093-.38.303-.677.63-.893.327-.216.753-.324 1.278-.324.625 0 1.112.138 1.462.412.351.268.526.668.526 1.2v1.794c0 .116.026.201.078.254.053.052.135.078.246.078zm-2.539 0c.257 0 .49-.06.7-.183.216-.129.324-.301.324-.517v-.455l-.937.21c-.198.047-.347.11-.446.192a.395.395 0 00-.14.324c0 .14.044.248.131.324.088.07.21.105.368.105zm9.045-3.738c.449 0 .82.138 1.112.412.297.274.446.668.446 1.182V53h-1.199v-2.635c0-.303-.067-.525-.202-.665-.134-.146-.318-.22-.551-.22a.884.884 0 00-.692.307c-.181.205-.271.49-.271.858V53h-1.199v-2.635c0-.303-.068-.525-.202-.665-.134-.146-.321-.22-.56-.22a.909.909 0 00-.683.307c-.187.199-.28.496-.28.893V53h-1.199v-4.377h1.076l.035.779c.146-.286.345-.502.596-.648.257-.146.543-.219.858-.219.326 0 .615.076.866.228.257.152.444.37.561.657.14-.286.344-.505.612-.657.269-.152.561-.228.876-.228zm6.883 2.259c0 .163-.011.32-.035.473h-3.099c.123.618.488.928 1.095.928.251 0 .458-.047.621-.14a.749.749 0 00.342-.403l.98.359c-.14.35-.376.618-.709.805-.327.181-.738.271-1.234.271-.724 0-1.284-.198-1.681-.595-.397-.402-.595-.963-.595-1.68 0-.718.192-1.276.577-1.673.386-.402.928-.604 1.629-.604.677 0 1.196.196 1.558.587.368.39.551.948.551 1.672zm-2.118-1.374c-.292 0-.525.084-.7.253-.17.17-.278.42-.324.753h2.039c-.046-.327-.157-.575-.332-.744-.175-.175-.403-.263-.683-.263zm4.824 3.667c-.975 0-1.652-.28-2.031-.84l.7-.718c.117.251.283.43.499.534.222.1.493.15.814.15.257 0 .455-.036.595-.106.141-.07.211-.166.211-.289 0-.099-.068-.184-.202-.254-.128-.07-.353-.137-.674-.201-.671-.134-1.144-.31-1.418-.525-.269-.222-.403-.52-.403-.893 0-.245.076-.476.228-.692.152-.216.376-.388.674-.516.298-.135.654-.202 1.068-.202.49 0 .887.076 1.191.228.303.146.557.38.761.7l-.744.63a1.296 1.296 0 00-.481-.516c-.187-.11-.424-.166-.71-.166-.239 0-.431.04-.577.122-.14.082-.21.181-.21.298 0 .122.07.225.21.306.14.082.388.158.744.228.636.128 1.085.298 1.348.508.268.204.403.49.403.858 0 .408-.175.738-.526.989-.344.245-.834.367-1.47.367z" fill="#282A39"/>
			<rect x="120" y="47" width="8" height="8" rx="2" fill="#6BDFFC"/>
		</g>
		<path d="M52.178 46.222c.67 0 1.193.164 1.567.49.373.321.56.777.56 1.366 0 .572-.187 1.018-.56 1.34-.374.32-.896.481-1.567.481H50.96V52h-1.208v-5.778h2.425zm-.184 2.74c.373 0 .648-.073.823-.219.175-.151.263-.376.263-.674 0-.297-.088-.52-.263-.665-.175-.146-.45-.219-.823-.219H50.96v1.777h1.033zm5.773-1.427c.204 0 .362.033.473.097l-.149 1.05c-.134-.087-.318-.131-.551-.131-.286 0-.534.105-.745.315-.204.204-.306.493-.306.867V52h-1.2v-4.377h1.042l.08.858c.239-.63.69-.946 1.356-.946zm3.144 0c.706 0 1.255.202 1.646.604.397.403.595.96.595 1.672s-.198 1.27-.595 1.672c-.391.403-.94.605-1.646.605s-1.258-.202-1.655-.605c-.39-.402-.586-.96-.586-1.671 0-.713.195-1.27.586-1.673.397-.402.949-.604 1.655-.604zm0 .893c-.339 0-.598.117-.78.35-.174.228-.262.572-.262 1.034 0 .46.088.808.263 1.041.18.228.44.342.779.342.338 0 .595-.114.77-.342.181-.233.272-.58.272-1.041 0-.462-.09-.806-.272-1.033-.175-.234-.432-.35-.77-.35zm6.221 3.3c-.14.111-.318.199-.534.263-.21.064-.432.096-.665.096-.975 0-1.462-.44-1.462-1.321v-2.25h-.797v-.893h.797v-1.007l1.2-.333v1.34h1.417v.893H65.67v2.057c0 .403.201.604.604.604.257 0 .482-.082.674-.245l.184.797zm2.764-4.193c.706 0 1.255.202 1.646.604.397.403.595.96.595 1.672s-.198 1.27-.595 1.672c-.391.403-.94.605-1.646.605s-1.258-.202-1.655-.605c-.39-.402-.586-.96-.586-1.671 0-.713.195-1.27.586-1.673.397-.402.949-.604 1.655-.604zm0 .893c-.339 0-.598.117-.78.35-.174.228-.262.572-.262 1.034 0 .46.088.808.263 1.041.18.228.44.342.779.342.338 0 .595-.114.77-.342.181-.233.272-.58.272-1.041 0-.462-.09-.806-.272-1.033-.175-.234-.432-.35-.77-.35zm6.221 3.3c-.14.111-.318.199-.534.263-.21.064-.432.096-.665.096-.975 0-1.462-.44-1.462-1.321v-2.25h-.797v-.893h.797v-1.007l1.2-.333v1.34h1.417v.893h-1.418v2.057c0 .403.202.604.604.604.257 0 .482-.082.674-.245l.184.797zm3.175.543c-.216.596-.466 1.013-.752 1.252-.28.24-.657.36-1.13.36-.472 0-.843-.115-1.111-.342l.297-.85a.691.691 0 00.306.21c.117.041.26.062.43.062.18 0 .326-.038.437-.114.111-.076.204-.213.28-.411l.158-.377-.482-1.138-1.339-3.3h1.33l.824 2.626.236.876.263-.928.805-2.574h1.217l-1.769 4.648zm5.022-4.736c.584 0 1.042.202 1.375.604.332.397.499.952.499 1.664 0 .718-.167 1.278-.5 1.68-.332.403-.79.605-1.374.605-.315 0-.59-.07-.823-.21a1.549 1.549 0 01-.551-.596v2.556h-1.2v-6.215h1.06l.044.867c.128-.292.318-.523.569-.692.256-.175.557-.263.901-.263zm-.359 3.633c.327 0 .58-.116.762-.35.18-.233.271-.569.271-1.006 0-.438-.09-.774-.271-1.007-.181-.234-.435-.35-.762-.35a.902.902 0 00-.709.306c-.18.198-.283.484-.306.858v.385c.023.368.125.654.306.858.181.204.417.306.71.306zm7.38-1.374c0 .163-.012.32-.036.473H88.2c.123.618.487.928 1.094.928.251 0 .459-.047.622-.14a.747.747 0 00.341-.403l.98.359c-.14.35-.375.618-.708.805-.327.181-.738.271-1.234.271-.724 0-1.285-.198-1.681-.595-.397-.402-.596-.963-.596-1.68 0-.718.193-1.276.578-1.673.385-.402.928-.604 1.629-.604.676 0 1.196.196 1.558.587.367.39.551.948.551 1.672zm-2.12-1.374c-.291 0-.525.084-.7.253-.169.17-.277.42-.323.753h2.04c-.047-.327-.158-.575-.334-.744-.175-.175-.402-.263-.682-.263zM77 67l-1-11 2-2 3 1v7h7l1 1 3 2v6l-2 3-1 2v3H78v-3h-2s0-2-1-2-2-1-2-1v-2l-1-2-2-1 1-3h3l1 1 2 1z" fill="#fff"/><path fill-rule="evenodd" clip-rule="evenodd" d="M77.094 53v1.576H75.57v11.001H73.97v1.55h1.602v1.602h1.576V54.576h3.124v9.426h1.576v-1.55h3.203v1.55h1.575v-1.55h1.497v3.125h1.576v-1.575h1.575v7.93h1.576v-7.93h-1.576v-1.575h-3.15v-1.55h-6.276v-6.301H80.27V53h-3.177zm12.551 22.083h-1.523v3.15h-9.44v-1.601h-1.535v-1.55h-1.576v-1.575h-1.575v-3.151H72.42v-1.627h-1.628v-3.152h3.15v-1.575h-3.15v1.575h-1.575v3.152h1.575v1.627h1.628v3.151h1.576v1.576h1.575v1.549h1.576v1.601h-.026v1.576h12.577v-4.726h1.523v-3.151h-1.576v3.15zm-7.798-5.934H80.27v4.28h1.576v-4.28zm1.55 0h1.575v4.28h-1.576v-4.28zm4.725 1.128h-1.576v3.152h1.576v-3.152z" fill="#1C1E2E"/><path d="M40.96 80h-1.207v-5.778h1.208V80zm3.963-4.465c.473 0 .852.138 1.139.412.291.274.437.668.437 1.182V80h-1.2v-2.521c0-.665-.259-.998-.778-.998-.28 0-.52.099-.718.297-.193.199-.289.502-.289.91V80h-1.2v-4.377h1.078l.034.779c.146-.286.348-.502.605-.648.256-.146.554-.219.892-.219zm6.815.088L50.075 80h-1.383l-1.664-4.377h1.287l1.077 3.537 1.103-3.537h1.243zm1.269-.63c-.496 0-.744-.213-.744-.64 0-.431.248-.647.744-.647s.744.216.744.647c0 .427-.248.64-.744.64zM53.602 80h-1.2v-4.377h1.2V80zm2.97.088c-.975 0-1.652-.28-2.031-.84l.7-.719c.117.251.283.43.499.534.222.1.493.15.814.15.257 0 .455-.036.595-.106.14-.07.21-.166.21-.289 0-.099-.067-.184-.2-.254-.13-.07-.354-.137-.675-.201-.671-.134-1.144-.31-1.418-.525-.269-.222-.403-.52-.403-.893 0-.245.076-.476.228-.692.151-.216.376-.388.674-.516.297-.134.653-.202 1.068-.202.49 0 .887.076 1.19.228.304.146.558.38.762.7l-.744.63a1.295 1.295 0 00-.482-.516c-.186-.11-.423-.166-.709-.166-.239 0-.432.04-.578.122-.14.082-.21.181-.21.298 0 .123.07.225.21.306.14.082.389.158.745.228.636.128 1.085.298 1.348.508.268.204.403.49.403.858 0 .408-.176.738-.526.989-.344.245-.834.368-1.47.368zm3.556-5.095c-.496 0-.744-.213-.744-.64 0-.431.248-.647.744-.647s.744.216.744.647c0 .427-.248.64-.744.64zM60.723 80h-1.2v-4.377h1.2V80zm3.285-4.465c.706 0 1.255.202 1.646.604.397.403.595.96.595 1.672s-.198 1.27-.595 1.672c-.391.403-.94.605-1.646.605s-1.258-.202-1.654-.604c-.392-.403-.587-.96-.587-1.672 0-.713.195-1.27.586-1.673.397-.402.949-.604 1.655-.604zm0 .893c-.338 0-.598.117-.78.35-.174.228-.262.572-.262 1.033 0 .461.088.809.263 1.042.18.228.44.342.779.342s.595-.114.77-.342c.181-.233.272-.58.272-1.041 0-.462-.09-.806-.272-1.034-.175-.233-.431-.35-.77-.35zm5.879-.893c.472 0 .852.138 1.138.412.291.274.437.668.437 1.182V80h-1.199v-2.521c0-.665-.26-.998-.78-.998-.28 0-.519.099-.717.297-.193.199-.289.502-.289.91V80h-1.2v-4.377h1.078l.035.779c.145-.286.347-.502.604-.648.257-.146.554-.219.893-.219z" fill="#282A39"/>
	<rect opacity=".5" x="34" y="47" width="8" height="8" rx="2" fill="#665CC8"/>
	<rect x="26" y="74" width="8" height="8" rx="2" fill="#6BDFFC"/>
	<rect x="37" y="19.13" width="8" height="8" rx="2" fill="#6BDFFC"/>
	<rect x="119" y="17" width="6" height="6" rx="2" fill="#6BDFFC"/>
	<path d="M104.097 120.748a68.73 68.73 0 014.051-6.532M123.609 92.265a67.01 67.01 0 016.755-8.188c11.498-11.873 26.735-18.733 42.564-20.038" stroke="#4CD8FA" stroke-width="11" stroke-linecap="round" stroke-linejoin="round"/>
	<defs>
		<filter id="filter0_d" x="12" y="32.008" width="110" height="46.87" filterUnits="userSpaceOnUse" color-interpolation-filters="sRGB">
			<feFlood flood-opacity="0" result="BackgroundImageFix"/>
			<feColorMatrix in="SourceAlpha" values="0 0 0 0 0 0 0 0 0 0 0 0 0 0 0 0 0 0 127 0"/>
			<feOffset dy="5"/>
			<feGaussianBlur stdDeviation="6"/>
			<feColorMatrix values="0 0 0 0 0.319689 0 0 0 0 0.610473 0 0 0 0 0.683169 0 0 0 0.16 0"/>
			<feBlend in2="BackgroundImageFix" result="effect1_dropShadow"/>
			<feBlend in="SourceGraphic" in2="effect1_dropShadow" result="shape"/>
		</filter>
	</defs>
</svg>