<svg width="162" height="164" fill="none" xmlns="http://www.w3.org/2000/svg"><g opacity=".2"><path d="M27.611 162.63c2.386.089 5.67.084 8.938.015 5.91-.128 11.71-.468 11.79-.861.804-.141.501-28.085-.137-29.862-.7-1.938-7.827-.943-9.906-.943-2.536 0-6.3-.13-8.853.067-2.056.158-3.919.605-4.045 2.913-.374 6.863-.036 17.85-.023 25.656.002 1.963-.082 2.925 2.236 3.015zM19.506 82.996c3.75-1.965 3.133-5.25 5.808-8.19l-8.167 5.25c-1.613 2.188.269 4.036 2.359 2.94z" fill="#fff"/><path fill-rule="evenodd" clip-rule="evenodd" d="M15.841 74.613l5.92-16.793h.002v-.007l3.805 17.09 6.98-1.28a84.982 84.982 0 00-3.918 10.992c-1.661 5.924-5.2 28.541-3.618 32.695l1.522.013c-.091.134-.526.609-1.163 1.304-3.189 3.476-11.442 12.476-7.086 12.077a97.975 97.975 0 0112.59-.346c.63.025 6.14.014 11.827-.112.356-.008.866-.719 1.374-1.427.504-.704 1.007-1.405 1.356-1.414.415-.012.673.685.93 1.376.25.676.498 1.345.889 1.337 4.647-.166 8.494-.432 8.61-.84.09-.348.804-9.998.89-11.714h.147l-.145-5.88 6.495 1.019c-.84 13.921-1.736 32.262-.76 34.828h7.04c-.251.227-.597.533-1.011.9-3.934 3.479-14.106 12.477-8.736 12.072 5.167-.383 10.35-.498 15.528-.344.775.023 7.575.012 14.588-.112.44-.008 1.068-.718 1.695-1.426.623-.704 1.245-1.407 1.678-1.417.513-.011.832.687 1.147 1.378.31.678.616 1.35 1.1 1.335 5.731-.164 10.475-.42 10.607-.84.12-.374 1.132-11.52 1.107-11.97h-.042c.197-1.684.079-8.23-.04-14.754v-.002c-.051-2.862-.103-5.721-.128-8.163.216.685 16.237.449 23.005.35 1.381-.021 2.377-.035 2.775-.035 15.33 0 19.53-9.931 22.203-22.941 2.551-12.39 5.437-30.975 5.598-35.168.21-5.61-5.157-10.555-11.09-11.3-5.25-.66-21.491-.778-27.151-.267-7.581-14.927-15.747-18.57-21.071-16.817a38.545 38.545 0 00-.252-3.01c-.279-2.236-.487-5.478-.63-8.61.279.034.397.063.489.086.131.033.211.053.628.053 1.496 0 3.222-6.678 4.058-9.91.158-.612.284-1.1.371-1.396.924-3.15.492-7.199-2.159-9.23-3.551-2.73-13.98-6.64-17.81-5.069-6.581 2.696-4.4 8.148-.073 9.521-1.437 1.554-2.758 3.631-3.83 6.17a3.36 3.36 0 00-2.002-.655 3.494 3.494 0 000 6.989h.105a42.25 42.25 0 00-.785 7.49c-.083 4.398 5.719 5.174 7.613 5.427.367.05.587.079.59.111.09.724.423 2.061.805 3.596.505 2.028 1.096 4.4 1.326 6.154-2.123-1.1-6.09-1.68-14.154-.188l-7.657 1.42a13.601 13.601 0 01-1.69-1.488c-1.024-1.043-1.15-2.537-1.278-4.077-.198-2.376-.406-4.864-3.94-5.988-.058-.294-.11-.596-.154-.903l-2.8-16.928c-.023-.07-.046-.15-.072-.238-.233-.79-.649-2.201-2.368-2.007l-9.11 1.208c-2.87.333-2.589 1.965-2.184 4.306l.084.498.809 5.43c-2.568.512-.666 5.293.155 7.357.136.344.243.612.294.773-2.2-4.59-3.654-.355-1.965 3.973.142.365.28.725.417 1.082v.001c1.318 3.435 2.519 6.566 6.01 10.285l-28.866 5.346.497 2.227-.001.004C13.765 58.969 6.54 63.21 3.109 68.46l-1.34 2.579a10.603 10.603 0 00-.758 4.273c.05 1.346.889 1.641 1.625 1.9.553.196 1.047.37 1.105.954.28 3.003 3.973 2.88 4.36.926-.075.438-.473 3.435.51 4.616 1.224 1.47 3.54 1.73 4.555-1.432-.023.12-.037.24-.042.361l2.717-8.024zm46.809-6.5l8.125 4.952a85.734 85.734 0 00-3.805 10.29 393.41 393.41 0 01-3.033-6.423l-.056-.122a38.469 38.469 0 00-5.112-7.98l3.881-.716zm44.36 52.291a148.046 148.046 0 000 3.78l.84-3.715-.84-.065z" fill="#fff"/><path fill-rule="evenodd" clip-rule="evenodd" d="M88.358 16.282a3.858 3.858 0 013.902 3.79 3.896 3.896 0 01-3.858 3.925 3.858 3.858 0 01-.044-7.715zm-2.834 5.01a3.064 3.064 0 002.878 1.844h-.008a3.034 3.034 0 003.005-3.064 3.064 3.064 0 10-5.875 1.22z" fill="#000"/><path d="M37.922 134.837c-.241 2.274-.27 5.399-.27 7.864v.309c0 1.455 0 2.188.476 2.642.309.292.74.382 1.401.382.21 0 .433 0 .682-.021.37-.021.889-.023 1.437-.025.707.014 1.414-.009 2.119-.072 1.585-.21 2.026-.554 2.142-1.65 0-.059.149-8.486.031-9.141-.327-1.817-1.388-1.792-3.498-1.743l-.614.012c-.35 0-.693 0-1.026-.021-1.27-.061-2.722-.117-2.88 1.464zM43.704 147.939c-.332 0-.708 0-1.117-.03-2.457-.147-3.854.08-4.526.737-.37.391-.549.923-.491 1.458.065 1.68.025 4.872 0 6.989-.013 1.075-.023 1.856-.015 2.1 0 .225.091.44.252.598.496.496 1.6.492 3.131.487h1.946c1.57 0 3.212-.21 3.36-1.993.167-2.003.137-6.3.045-8.364-.09-1.972-1.248-1.978-2.585-1.982z" fill="#000"/><path fill-rule="evenodd" clip-rule="evenodd" d="M43.706 40.11c1.277 3.328 2.434 6.344 5.57 9.855l-28.088 5.202-.44.08.494 2.22c-5.367.856-10.622 3.15-14.49 6.354a20.355 20.355 0 00-3.862 4.173S.537 73.984.58 75.327c.061 1.634 1.172 2.028 1.907 2.288l.002.001c.61.21.79.317.815.586.168 1.819 1.48 2.677 2.705 2.73a2.716 2.716 0 001.518-.378c-.038 1.144.067 2.62.744 3.433a3.131 3.131 0 002.356 1.206c.173 0 .347-.02.516-.057.614-.134 1.68-.645 2.344-2.495h.059c.003-.082.012-.163.027-.243l.013-.042c.032-.105.064-.213.094-.326h-.04c.313-1.606 1.317-5.573 1.623-6.115.601-1.069 1.81-1.634 2.59-1.541a.865.865 0 01.79.63c0 .373-.064 2.69-1.626 4.53-1.226 1.442-1.016 2.757-.466 3.445.419.514 1.053.805 1.716.788a3.13 3.13 0 001.44-.376c2.34-1.227 3.068-2.92 3.838-4.711l.003-.008c.466-1.087.95-2.209 1.838-3.278l6.453-1.182a85.823 85.823 0 00-3.627 10.29c-1.533 5.475-5.277 28.573-3.606 32.97l.105.275h.88l-.544.594c-5.588 6.09-9.139 10.5-8.311 12.166.21.42.64.63 1.28.63.097 0 .21 0 .307-.015a98.31 98.31 0 0110.007-.401c-1.44.22-3.234.867-3.36 3.204-.263 4.809-.179 11.494-.097 17.96l.007.549c.031 2.558.06 4.977.065 7.17v.21c0 1.829 0 3.15 2.65 3.247 1.203.044 2.677.067 4.296.067 2.648 0 5.69-.059 8.573-.17 7.02-.269 8.043-.586 8.242-.924a.588.588 0 00.055-.08c.54-.93.514-10.769.476-14.954-.044-5.126-.227-14.099-.63-15.225-.44-1.222-2.507-1.51-5.166-1.47.361-.381.69-.792.981-1.228.3-.42.792-1.103 1.02-1.227.164.126.391.74.517 1.081l.002.005c.299.806.607 1.632 1.31 1.617 8.783-.313 8.89-.729 9.003-1.17.126-.491.702-8.883.866-11.386h.195l-.145-5.815 5.596.876c-.84 13.801-1.721 31.949-.707 34.618l.107.277h6.205l-.166.147c-6.743 5.964-11.077 10.303-10.321 12.092.21.496.73.746 1.552.746.111 0 .229 0 .35-.013 5.152-.382 10.32-.497 15.484-.344.785.025 7.593.012 14.61-.112.614-.012 1.228-.699 1.951-1.508l.056-.062.011-.013c.391-.442 1.105-1.248 1.356-1.26.226 0 .542.686.736 1.108l.008.018c.359.791.739 1.615 1.503 1.587 10.74-.308 10.87-.716 11.006-1.144.183-.578 1.13-12.042 1.126-12.115l-.015-.298c.07-.874.093-2.464.068-5.391h3.168l2.806 18.793c-.601.479-1.321 1.077-1.455 1.23.187-.028.957-.006 1.774.017H114c1.089.031 2.259.065 2.236-.017.271 0 .592.011.924.021l.514.015.21.034v-.028c.87.024 1.636.032 1.617-.035-.04-.14-.644-.76-1.122-1.249l-.266-.274 2.581-17.514h26.204l3.307 17.563-.117.12-.112.114v.001l-.001.001c-.477.488-1.072 1.097-1.112 1.234-.027.093 1.204.055 2.317.02.785-.025 1.512-.047 1.694-.02-.161-.185-1.169-1.011-1.797-1.502l-7.067-37.516a16.806 16.806 0 004.971-4.219c3.606-4.488 5.282-10.876 6.445-16.532 2.593-12.6 5.46-31.132 5.607-35.24.21-5.558-5.04-10.937-11.466-11.743-5-.63-20.857-.794-26.956-.294-3.402-6.644-7.125-11.466-11.079-14.343-3.36-2.448-6.834-3.36-9.839-2.579a37.44 37.44 0 00-.222-2.497c-.265-2.1-.464-5.117-.599-8.032.218.044.44.06.662.05 1.52 0 2.837-3.912 4.471-10.22l.019-.076c.15-.581.27-1.043.352-1.32.916-3.115.582-7.477-2.31-9.694C100.538 2.956 89.87-1.122 85.83.532c-3.975 1.63-4.48 4.018-4.427 5.297.08 1.99 1.604 3.89 3.78 4.806a19.654 19.654 0 00-1.84 2.57 24.736 24.736 0 00-1.44 2.783 3.78 3.78 0 00-1.819-.466 3.93 3.93 0 00-.407 7.829 43.233 43.233 0 00-.706 7.069c-.088 4.78 5.97 5.593 7.97 5.861l.01.002.265.035c.13.788.432 2.002.777 3.381.437 1.75.922 3.699 1.193 5.305-2.352-.907-6.387-1.26-13.688.1l-7.468 1.383a13.126 13.126 0 01-1.495-1.328c-.913-.934-1.031-2.33-1.153-3.811-.2-2.398-.42-5.04-3.99-6.281-.038-.21-.076-.42-.107-.63l-2.8-16.945-.016-.067a3.905 3.905 0 01-.055-.178l-.014-.051-.002-.005c-.228-.763-.757-2.538-2.836-2.305l-9.103 1.205c-1.149.135-1.922.485-2.363 1.073-.682.916-.457 2.224-.195 3.738l.052.298.032.185.744 5.074a1.79 1.79 0 00-.93.84c-.687 1.26-.129 3.454.508 5.25a.985.985 0 00-.78 0c-1.232.536-1.346 3.616-.235 6.466.14.378.277.737.414 1.094zm.206-6.75c.174 0 .665.295 1.354 1.727a22.48 22.48 0 001.08 2.415c.19.37.39.745.6 1.121l.029.05c.026.046.052.091.076.137l.479.998.42.892-.237-.748a51.168 51.168 0 001.631 2.52l.294.42.15.21.149.21c.247.339.491.66.726.958a.5.5 0 00.389.33l.193-.84a.38.38 0 01.233.227.791.791 0 00-.132-.244 25.61 25.61 0 01-.53-.693c-.067-.088-.134-.177-.201-.269a44.102 44.102 0 01-3.444-5.531 32.574 32.574 0 01-.63-1.283 15.3 15.3 0 01-.491-1.189 9.162 9.162 0 00-.198-.525l-.1-.254-.007-.015c-.587-1.478-1.942-4.891-1.205-6.247a.978.978 0 01.306-.345c.128-.082.27-.139.42-.165h.021a.798.798 0 01.42.027c.559.197.968 1.05 1.434 2.188.21 1.113 2.1 4.236 4.104 7.46.265.42.514.825.55.894a.421.421 0 01-.038-.177h.861v-.024-.023c-.009-.112-.076-.22-.642-1.126-.769-1.233-2.464-3.953-3.381-5.73a.557.557 0 00-.047-.21c-.77-1.81-.984-3.36-.53-3.834.34-.363 1.14-.183 1.75.034.478.192 1.964 2.687 3.163 4.7l.013.02c1.6 2.689 3.414 5.734 4.893 7.24.083.09.161.184.235.283.23.29.513.649.886.81a.32.32 0 00.28.047l1.7-.259-1.543-.546c-.735-.684-2.803-3.196-2.6-3.706a.56.56 0 01.296-.038c1.196.026 2.384.194 3.54.498a6.766 6.766 0 01.945.332c2.59 1.119 2.765 3.196 2.94 5.36l.001.002c.13 1.566.265 3.187 1.396 4.342a15.334 15.334 0 001.428 1.289c.141.111.32.241.475.35.535.377 1.04.665 1.58.973l.033.019c.483.273.978.554 1.55.93L64.294 62.44l-8.965-8.076-.025-.021a43.798 43.798 0 01-4.326-3.78l-.361-.372-.14-.148c-.071-.076-.142-.15-.21-.226-3.312-3.584-4.475-6.616-5.765-9.975v-.002l-.034-.088a53.257 53.257 0 00-.386-.991c-1.1-2.898-.685-5.198-.21-5.404l.016.002a.22.22 0 01.024.003zm2.014-14.704c-.299.021-.534.385-.509.811.026.426.297.756.605.733.307-.021.536-.38.508-.806-.027-.427-.306-.759-.604-.738zM89.42 46.05c.246.123.483.263.71.42.387.267.734.586 1.033.949.253.318.48.656.678 1.01l.001.002c.386.648.75 1.258 1.549 1.258.21 0 .39 0 .56-.01.456-.036.915.001 1.36.109.077.714.21 1.632.407 2.681l.027.149.063.34.088.473c.83 4.347 2.268 10.328 3.182 13.585l-27.45-18.312a26.738 26.738 0 00-1.763-1.069l-.125-.07a39.414 39.414 0 01-.684-.398l6.605-1.224c7.822-1.443 11.692-.918 13.759.107zm-2.354-10.624c.649.086.917.122.962.485.086.708.417 2.04.806 3.57.493 1.978 1.048 4.208 1.298 5.95 1.405.785 2.01 1.79 2.455 2.542.37.63.525.84.808.84h.54a5.878 5.878 0 011.237.06c-.763-5.037 1.552-9.615 5.67-11.158a38.951 38.951 0 00-.231-2.66c-.273-2.191-.479-5.333-.616-8.344-.982-.093-1.89-.611-2.767-1.117a9.714 9.714 0 00-1.496-.756c-2.187-.772-1.754-4.02-1.335-7.167l.002-.011c.216-1.602.418-3.119.233-4.08-.609-.626-6.098-2.113-8.574-2.659a21.02 21.02 0 00-3.438 5.582 3.937 3.937 0 01-2.069 6.835 41.6 41.6 0 00-.724 7.096c-.076 4.02 5.428 4.752 7.239 4.992zM81.55 16.783a2.998 2.998 0 01.71.573c.52.571.808 1.316.806 2.088a3.056 3.056 0 01-2.333 2.986c-.154.034-.31.057-.468.067h-.193c-.066 0-.158 0-.236-.01a3.066 3.066 0 01.244-6.107 2.91 2.91 0 011.47.403zm41.616 40.667c-.172-.361-.347-.723-.519-1.078l-.002.005c-7.524-15.57-15.662-19.535-20.918-18.027a6.793 6.793 0 00-.351.107l-.071.028c-.14.05-.28.105-.42.163-3.556 1.491-5.525 5.576-4.864 10.08a30.057 30.057 0 013.814-.25h.917c3.705.084 8.755.84 12.882 3.78 3.614 2.573 5.867 6.389 6.695 11.34v.03c.016.164.037.342.063.531.033.252.077.527.126.82.042.25.09.512.14.785.184.972.422 2.096.679 3.309l.048.227c1.378 6.468 3.377 15.868 1.394 21.441h15.427c-1.172-2.573-2.574-5.738-4.062-9.097l-.384-.868c-3.154-7.127-6.69-15.115-10.094-22.278l-.082-.171-.001-.002-.167-.352-.25-.523zm-16.368 89.222a6.4 6.4 0 01-.037.42H62.803c-.787-3.276.026-20.386.84-33.9l.026-.432c0-.093.007-.185.015-.278l.012-.153c.42-6.943.84-12.81 1.023-15.154.306-3.945 1.127-8.259 2.358-12.62a28.129 28.129 0 01.224-.77l.029-.1.03-.102.076-.26a84.76 84.76 0 013.653-9.9l.06-.133.174-.397a84.65 84.65 0 012.421-4.903c.28-.527.569-1.048.865-1.563 2.336-4.08 5.272-6.077 8.726-5.92 7.35.326 15.17 10.03 18.144 16.487.357.78 2.031 4.373 3.652 7.714 1.693 3.48 2.596 5.206 3.125 6.058.113.179.21.322.29.42.231.311.363.382.478.395a.491.491 0 00.097 0H122.431l16.17.01c.006.015.01.03.014.045 2.35 6.789 1.508 13.91-2.23 18.652-4.305 5.46-12.11 7.743-22.564 6.579h-6.09c.023-.525 0-1.438-.08-3.125-.155-3.691-.443-10.565.804-11.865a.393.393 0 01.301-.151v-.861a1.26 1.26 0 00-.922.42c-1.388 1.447-1.286 6.737-1.05 12.497v.013c.061 1.438.123 2.918.061 3.288-.147.246-.236.897-.261 2.846v.853c0 2.255.038 5.854.143 11.623l.019 1.094v.005c.042 2.336.085 4.808.107 7.007v.861c.017 2.373.008 4.32-.057 5.3h.002zM59.71 92.962h.015c.657.013.886.925.972 1.27l-.84.21a2.648 2.648 0 00-.185-.538c-.178.22-.502.86-1.033 2.652a5.688 5.688 0 01-.132.42c-.519 1.28-.994 9.026-1.313 14.335l5.643.884c.516-8.365 1.004-14.912 1.018-15.085.334-4.282 1.263-8.984 2.657-13.715a534.11 534.11 0 01-3.022-6.407 38.144 38.144 0 00-5.089-7.942l-.002-.002-.098-.12-.317-.378c-3.598-4.24-8.203-7.837-12.628-8.032-3.452-.156-6.388 1.84-8.723 5.92a74.268 74.268 0 00-3.36 6.64c-.036.078-.07.158-.105.238l-.105.238a84.888 84.888 0 00-4.021 11.185c-1.66 5.922-4.994 27.531-3.72 32.151h31.125l-.143-5.71h.042c.435-7.201.84-13.217 1.369-14.523.015-.036.063-.2.105-.343.645-2.17 1.138-3.347 1.89-3.347zm-37.926-37.03l28.182-5.221a43.486 43.486 0 004.807 4.273l9.118 8.226-2.484 4.658.06.035-2.52.465c-3.798-4.555-8.752-8.505-13.546-8.715-3.804-.17-7.002 1.967-9.51 6.352a77.119 77.119 0 00-3.632 7.254L25.9 74.41l-4.116-18.48zm43.029 7.372l-.254.496-.01.01-2.002 3.751.191.116.553.338.552.336 6.74 4.107a78.38 78.38 0 012.89-5.756l.152-.27.237-.42.174-.297c2.48-4.183 5.622-6.22 9.337-6.056 7.705.338 15.825 10.336 18.887 16.985 2.079 4.513 6.157 13.07 6.997 14.097H121.857c2.084-5.248.059-14.763-1.325-21.258l-.175-.831c-.106-.503-.208-.986-.303-1.45l-.152-.758c-.052-.267-.103-.525-.147-.773a24.858 24.858 0 01-.292-1.944c-.789-4.709-2.923-8.331-6.337-10.765-4.003-2.852-9.041-3.543-12.659-3.608h-.937a30.554 30.554 0 00-3.36.21h-.014c.011.127.028.263.044.405v.003l.001.001.011.095c.097.71.24 1.586.42 2.569l.012.062.014.078.054.28.04.203.02.108.022.108c.93 4.826 2.596 11.59 3.436 14.354 2.326 1.653 7.476 5.235 8.106 5.559.269.144.527.309.772.491.458.328.889.63 1.359.63v.861c-.743 0-1.333-.414-1.854-.781a5.758 5.758 0 00-.666-.42c-.626-.317-8.238-5.58-9.347-6.45L71.953 49.947l-7.14 13.358zm5.416 9.931a85.706 85.706 0 00-3.345 8.944 425.843 425.843 0 01-2.609-5.552 38.522 38.522 0 00-4.723-7.508l3.016-.552 7.66 4.668zM1.446 75.3c.04 1.052.61 1.255 1.335 1.51h-.004c.224.074.442.165.653.27.282-1.736 1.674-6.792 2.17-8.48l-.508-.254.98.157c-.74 2.355-1.895 9.102-1.905 9.646.137 1.37 1.059 1.892 1.88 1.922h-.005c.71.03 1.491-.334 1.634-1.073C7.693 77.685 10.5 69.3 10.5 69.3s-.056-.045-.156-.121l.51.081c.489-.87.984-1.562 1.453-1.947l.546.666c-1.806 1.485-4.314 8.761-4.314 11.071h-.373l.367.072-.007.031c-.004.016-.008.031-.008.046-.098.561-.392 3.26.42 4.238.557.678 1.342 1.01 2.027.86.764-.169 1.39-.923 1.785-2.135.269-1.577 1.386-6 1.768-6.68.71-1.251 2.215-2.116 3.44-1.976a1.745 1.745 0 011.535 1.298l.013.05v.053c.006.118.092 2.913-1.83 5.172-.884 1.042-.808 1.9-.449 2.35.36.45 1.142.68 2.083.185 2.073-1.086 2.711-2.573 3.45-4.294.536-1.25 1.09-2.544 2.24-3.804l.06.05-3.622-16.255c-7.55 1.184-14.163 5.1-17.563 9.84l.09.015c-1.317 1.652-2.557 5.918-2.52 7.134zm8.898-6.121C9.655 68.656 6.91 66.678 6.3 67.9c-.07.139-.146.344-.227.603l.02.003c.054-.073.112-.143.174-.21l.292.28 3.785.603zm-6.38-1.013c.079-.099.157-.188.236-.266l.892.446-1.127-.18zM27.63 162.2c-1.82-.065-1.82-.557-1.82-2.386v-.21c0-2-.028-4.185-.056-6.492v-.001l-.016-1.235c-.082-6.451-.166-13.123.095-17.902.1-1.861 1.47-2.34 3.645-2.508 1.086-.082 2.396-.107 3.74-.107.711 0 1.422.008 2.122.015l.382.004c-1.136 1.18-1.103 3.383-1.073 5.263v.882c0 .785 0 18.27-.026 19.154-.056 3.255-.025 4.798.313 5.559-2.629.048-5.222.042-7.31-.036h.004zm20.74-15.343c-.07-7.707-.32-14.063-.58-14.79h.007c-.441-1.231-5.24-.911-7.582-.754l-.035.002-.07.005h-.008c-.743.048-1.38.09-1.812.09h-.49c-2.2.121-2.337 2.242-2.29 5.224v.897c0 .177-.01 18.249-.028 19.171-.05 2.864-.008 4.244.147 4.918.103.455.151.462.597.531l.004.001c.105.014.223.035.349.06 5.32-.119 10.403-.415 11.369-.699l.019-.101.078-.014c.222-1.002.4-6.124.325-14.541zm59.325-6.327c-.021-2.064-.063-4.712-.124-8.121-.046-2.482-.094-5.201-.122-7.633.242.042.559.082.973.117l2.322 15.637h-3.049zm8.219 20.492c.376-.319.906-.75 1.309-1.065l5.149-34.902c-2.096.027-3.914.027-5.485.027-3.724 0-6.08-.048-7.579-.132l5.136 34.631a.261.261 0 01.072-.042c-.002.027.248.283.557.6h.001c.28.287.608.623.84.883zm30.81-19.507H120.82l2.426-16.466c2.007-.019 4.258-.046 6.785-.084a288.83 288.83 0 012.767-.036c4.068 0 7.521-.697 10.412-2.115l3.514 18.701zm13.44-75.142c.21-5.13-4.704-10.101-10.71-10.855-4.87-.611-20.137-.782-26.418-.313.132.264.262.531.392.8.106.216.21.435.315.654l.162.337c5.418-.367 18.847-.273 21.962.441 3.71.849 5.884 1.632 7.463 3.555 3.891 4.734 2.703 11.777 1.47 16.664-1.848 7.329-7.472 29.631-13.593 35.876-.396.402-.707.723-.962.986l-.019.02a16.872 16.872 0 01-2.425 2.193l-1.229.98c-3.362 2.69-7.052 3.197-13.562 3.268-.753.013-1.593.013-2.482.013h-.002c-2.585 0-5.594-.03-8.142-.055l-.938-.009c-1.465-.013-2.716-.025-3.556-.025h-.033l-.42-.031c-.004.901.002 1.934.012 3.049 1.38.328 8.783.334 15.051.279v-.048l.313.044c2.606-.022 4.993-.057 6.635-.08l.562-.008c1.381-.021 2.379-.036 2.78-.036 4.028 0 7.426-.705 10.246-2.14l-.021-.113.37-.069a15.983 15.983 0 004.916-4.108c3.49-4.349 5.128-10.615 6.27-16.17 2.587-12.573 5.433-31.021 5.593-35.1z" fill="#000"/><path fill-rule="evenodd" clip-rule="evenodd" d="M5.6 71.4c0-.7.7-4.2.7-4.2s8.4-1.4 7 0c-1.4 1.4-2.8 2.8-4.2 6.3-1.4 3.5-3.5-1.4-3.5-2.1zM3.5 68.6s1.4-2.1 2.1-2.1c.7 0 .7.7.7.7L4.9 70l-1.4-1.4z" fill="#fff"/></g></svg>