<svg viewBox="0 0 25 30" fill="none" xmlns="http://www.w3.org/2000/svg"><g filter="url(#filter0_d)"><path fill-rule="evenodd" clip-rule="evenodd" d="M15.546 11.095l4.833-4.985a.356.356 0 01.514 0 .383.383 0 010 .53l-5.09 5.25a.356.356 0 01-.515 0l-2.181-2.25a.383.383 0 010-.53.356.356 0 01.514 0l1.925 1.985z" fill="#622572"/><path d="M20.271 6.005l-4.726 4.874-1.816-1.874a.506.506 0 00-.73 0 .533.533 0 000 .74l2.182 2.25a.506.506 0 00.73 0L21 6.745a.533.533 0 000-.74.506.506 0 00-.73 0z" stroke="#622572" stroke-width=".3"/></g><defs><filter id="filter0_d" x=".7" y="-1.3" width="32.6" height="30.6" filterUnits="userSpaceOnUse" color-interpolation-filters="sRGB"><feFlood flood-opacity="0" result="BackgroundImageFix"/><feColorMatrix in="SourceAlpha" values="0 0 0 0 0 0 0 0 0 0 0 0 0 0 0 0 0 0 127 0"/><feOffset dy="5"/><feGaussianBlur stdDeviation="6"/><feColorMatrix values="0 0 0 0 0.319689 0 0 0 0 0.610473 0 0 0 0 0.683169 0 0 0 0.16 0"/><feBlend in2="BackgroundImageFix" result="effect1_dropShadow"/><feBlend in="SourceGraphic" in2="effect1_dropShadow" result="shape"/></filter></defs></svg>