<svg width="333" height="357" fill="none" xmlns="http://www.w3.org/2000/svg"><g opacity=".2"><path fill-rule="evenodd" clip-rule="evenodd" d="M0 66.019c0-16.603 12.335-30.618 28.803-32.73L286.1.297c18.527-2.376 35.291 11.054 36.762 29.675 2.695 34.125 6.675 90.231 9.138 151.113 4 98.865-24 175.865-24 175.865L66.88 290.21c-3.234-.896-6.318-2.271-8.983-4.31C44.064 275.316 0 236.422 0 170.364V66.019z" fill="#fff"/><path d="M307.841 355.896c-.06.175-.113.324-.156.447L67.013 289.727c-3.187-.882-6.208-2.233-8.812-4.225C44.409 274.951.5 236.186.5 170.364V66.019c0-16.351 12.148-30.154 28.366-32.233L286.163.792c18.248-2.34 34.753 10.887 36.2 29.219 2.695 34.12 6.675 90.22 9.137 151.093 1.998 49.382-3.996 93.306-10.49 124.886-3.247 15.789-6.618 28.49-9.177 37.243a311.244 311.244 0 01-3.113 10.058 185.611 185.611 0 01-.879 2.605z" stroke="#fff" stroke-opacity=".09"/></g></svg>