<svg width="382" height="1216" fill="none" xmlns="http://www.w3.org/2000/svg"><g clip-path="url(#clip0)"><path d="M382 0H0v1193c0 12.7 10.297 23 23 23h336c12.703 0 23-10.3 23-23V0z" fill="#491556"/><mask id="a" maskUnits="userSpaceOnUse" x="0" y="0" width="382" height="1216"><path d="M382 0H0v1193c0 12.7 10.297 23 23 23h336c12.703 0 23-10.3 23-23V0z" fill="#fff"/></mask><g mask="url(#a)"><path fill-rule="evenodd" clip-rule="evenodd" d="M439 130c50-40 23.328-13.411 30.127-45.401 6.8-31.99-34.565-69.765-66.547-76.563-31.982-6.798-2.338 37.383-59.18 67.76C286.559 106.173 389 170 439 130z" fill="#6BDFFC"/><path fill-rule="evenodd" clip-rule="evenodd" d="M-60 962s108-56 176 11 58 177 280 228-15-218-15-218L8 777l-120 95 52 90z" fill="#622572"/><path fill-rule="evenodd" clip-rule="evenodd" d="M-16 599l410-98s215 289 82 507S176 851-16 887s0-288 0-288z" fill="#6BDFFC"/><path d="M178.124 600.297l-1.862-5.704 1.862 5.704zm3.842-7.566l5.704-1.862-5.704 1.862zm-7.566-3.842l1.862 5.704-1.862-5.704zm34.951-8.869l-4.446-4.029 4.446 4.029zm-8.475.418l-4.029 4.446 4.029-4.446zm-.418-8.475l4.447 4.028-4.447-4.028zM179.986 606c6.301-2.056 9.74-8.831 7.684-15.131l-11.408 3.724L179.986 606zm-12.167 2.927A78.934 78.934 0 00179.986 606l-3.724-11.407a67.015 67.015 0 01-10.32 2.482l1.877 11.852zm-13.729-9.975c1.037 6.546 7.183 11.012 13.729 9.975l-1.877-11.852-11.852 1.877zm9.975-13.729c-6.546 1.037-11.012 7.183-9.975 13.729l11.852-1.877-1.877-11.852zm8.473-2.037a55.095 55.095 0 01-8.473 2.037l1.877 11.852a67.015 67.015 0 0010.32-2.482l-3.724-11.407zm15.132 7.683c-2.057-6.3-8.832-9.74-15.132-7.683l3.724 11.407 11.408-3.724zm45.74-72.821c-1.037-6.546-7.184-11.012-13.729-9.975l1.877 11.852 11.852-1.877zm-19.613 66.001c15.595-17.212 23.544-41.182 19.613-66.001l-11.852 1.877c3.341 21.096-3.406 41.445-16.653 56.066l8.892 8.058zm-16.95.835c4.912 4.45 12.501 4.076 16.95-.835l-8.892-8.058-8.058 8.893zm-.835-16.95c-4.45 4.912-4.076 12.5.835 16.95l8.058-8.893-8.893-8.057zm13.694-46.132c2.752 17.376-2.795 34.103-13.694 46.132l8.893 8.057c13.247-14.621 19.994-34.97 16.653-56.066l-11.852 1.877zm9.975-13.729c-6.546 1.036-11.012 7.183-9.975 13.729l11.852-1.877-1.877-11.852z" fill="#F45D5D"/><path fill-rule="evenodd" clip-rule="evenodd" d="M406.257 1173.08c-28.14-8.66-99.507-1.67-119.866 35.06-20.359 36.72-41.661 58.84-4.933 79.2s70.675 64.09 124.355 6.91c53.679-57.18 28.584-112.5.444-121.17z" fill="#DC1010"/><path fill-rule="evenodd" clip-rule="evenodd" d="M-40 269.736s145.354 247.232 263 181C340.646 384.505 427 291 392 485S30.573 792.905-159 765c-189.573-27.905-235.271-357.802-235.271-357.802s294-238.965 303.397-242.386C-81.479 161.392-40 269.736-40 269.736z" fill="#622572"/><path fill-rule="evenodd" clip-rule="evenodd" d="M-151.541 518.394s2.115-50.135-108.82-47.771c-110.934 2.364-61.258-263.351 144.742-298.351s39 164 313 87 239 56 188 179-258 202-420 139-2.322-74.939-2.322-74.939l-114.6 16.061z" fill="#DC1010"/><mask id="b" maskUnits="userSpaceOnUse" x="-336" y="144" width="767" height="489"><path fill-rule="evenodd" clip-rule="evenodd" d="M-151.541 518.394s2.115-50.135-108.82-47.771c-110.934 2.364-61.258-263.351 144.742-298.351s39 164 313 87 239 56 188 179-258 202-420 139-2.322-74.939-2.322-74.939l-114.6 16.061z" fill="#fff"/></mask><g mask="url(#b)"><path fill-rule="evenodd" clip-rule="evenodd" d="M-78.573 276.373s-13-98 49-134-14 98 98 78 250.932 62.474 250.932 62.474L211.767 386.519 92 418" fill="#491556"/></g><path fill-rule="evenodd" clip-rule="evenodd" d="M-59 80.799S-23.919 57.043 33 87c57 30 101-1 120-47S262-3 262-3L32.552-182-59 80.798z" fill="#DC1010"/></g><path d="M136.104 567.948l-.844-5.94.844 5.94zm5.097-6.783l5.94-.844-5.94.844zm-6.784-5.097l.843 5.94-.843-5.94zm35.96-2.666l-3.679-4.739 3.679 4.739zm-8.419-1.06l-4.739 3.679 4.739-3.679zm1.061-8.419l3.679 4.74-3.679-4.74zm-26.072 29.966c6.562-.932 11.126-7.006 10.194-13.568l-11.881 1.687 1.687 11.881zm-12.49.769c4.236.074 8.409-.19 12.49-.769l-1.687-11.881a66.937 66.937 0 01-10.594.652l-.209 11.998zm-11.789-12.207c-.116 6.626 5.162 12.092 11.789 12.207l.209-11.998-11.998-.209zm12.208-11.789c-6.627-.116-12.092 5.162-12.208 11.789l11.998.209.21-11.998zm8.697-.535c-2.83.402-5.734.587-8.697.535l-.21 11.998c3.6.063 7.139-.161 10.594-.652l-1.687-11.881zm13.568 10.194c-.932-6.562-7.006-11.126-13.568-10.194l1.687 11.881 11.881-1.687zm57.691-63.772c.116-6.626-5.162-12.092-11.789-12.207l-.209 11.998 11.998.209zm-30.776 61.593c18.347-14.243 30.338-36.468 30.776-61.593l-11.998-.209c-.373 21.356-10.551 40.224-26.136 52.323l7.358 9.479zm-16.837-2.121c4.064 5.235 11.602 6.185 16.837 2.121l-7.358-9.479-9.479 7.358zm2.12-16.837c-5.235 4.064-6.184 11.602-2.12 16.837l9.479-7.358-7.359-9.479zm21.497-43.054c-.307 17.59-8.675 33.1-21.497 43.054l7.359 9.479c15.585-12.099 25.763-30.967 26.136-52.323l-11.998-.21zm12.207-11.788c-6.626-.116-12.092 5.162-12.207 11.788l11.998.21.209-11.998z" fill="#fff"/></g><defs><clipPath id="clip0"><path fill="#fff" d="M0 0h382v1216H0z"/></clipPath></defs></svg>