<svg width="360" height="667" viewBox="0 0 360 667" fill="none" xmlns="http://www.w3.org/2000/svg"><g clip-path="url(#clip0)"><path d="M359.792 34c0-18.778-15.222-34-34-34H34C15.222 0 0 15.222 0 34v1081.68c0 11.43 9.268 20.7 20.7 20.7h318.392c11.433 0 20.7-9.27 20.7-20.7V34z" fill="#491556"/><mask id="a" maskUnits="userSpaceOnUse" x="0" y="0" width="360" height="1137"><path d="M359.792 34c0-18.778-15.222-34-34-34H34C15.222 0 0 15.222 0 34v1081.68c0 11.43 9.268 20.7 20.7 20.7h318.392c11.433 0 20.7-9.27 20.7-20.7V34z" fill="#fff"/></mask><g mask="url(#a)"><path fill-rule="evenodd" clip-rule="evenodd" d="M410.031 121.488c46.701-37.381 21.788-12.533 28.139-42.429 6.351-29.895-32.284-65.196-62.156-71.549-29.872-6.353-2.183 34.935-55.274 63.323-53.091 28.388 42.59 88.035 89.291 50.655zM-14.944 553.965L368 468.195s200.813 252.933 76.589 443.727c-124.223 190.798-280.203-137.407-459.533-105.9-179.33 31.508 0-252.057 0-252.057z" fill="#6BDFFC"/><path d="M166.295 560.776l1.675 5.134-1.675-5.134zm3.458-6.809l-5.134 1.676 5.134-1.676zm-6.809-3.458l-1.676-5.133 1.676 5.133zm32.444-8.616l-4.001-3.627 4.001 3.627zm-7.627.374l-3.627 4.001 3.627-4.001zm-.374-7.628l4 3.627-4-3.627zM167.97 565.91c5.671-1.851 8.767-7.948 6.916-13.618l-10.267 3.351 3.351 10.267zm-11.306 2.719a73.504 73.504 0 0011.306-2.719l-3.351-10.267a62.6 62.6 0 01-9.644 2.319l1.689 10.667zm-12.356-8.978c.933 5.892 6.465 9.911 12.356 8.978l-1.689-10.667-10.667 1.689zm8.977-12.356c-5.891.933-9.91 6.465-8.977 12.356l10.667-1.689-1.69-10.667zm7.983-1.919a51.825 51.825 0 01-7.983 1.919l1.69 10.667a62.6 62.6 0 009.644-2.319l-3.351-10.267zm13.618 6.916c-1.85-5.67-7.947-8.767-13.618-6.916l3.351 10.267 10.267-3.351zm42.736-68.084c-.934-5.891-6.466-9.911-12.357-8.978l1.689 10.668 10.668-1.69zm-18.233 61.312c14.494-15.989 21.884-38.255 18.233-61.312l-10.668 1.69c3.121 19.704-3.186 38.711-15.567 52.368l8.002 7.254zm-15.255.748c4.419 4.006 11.249 3.671 15.255-.748l-8.002-7.254-7.253 8.002zm-.748-15.255c-4.006 4.419-3.671 11.249.748 15.255l7.253-8.002-8.001-7.253zm12.901-43.426c2.591 16.354-2.634 32.1-12.901 43.426l8.001 7.253c12.381-13.657 18.688-32.664 15.567-52.368l-10.667 1.689zm8.978-12.357c-5.891.934-9.911 6.466-8.978 12.357l10.667-1.689-1.689-10.668z" fill="#F45D5D"/><path fill-rule="evenodd" clip-rule="evenodd" d="M-37.36 252.074S98.401 483.117 208.283 421.222c109.883-61.894 190.539-149.277 157.848 32.02-32.69 181.297-337.577 287.744-514.64 261.666-177.063-26.078-219.746-334.373-219.746-334.373s274.6-223.318 283.376-226.514c8.777-3.197 47.517 98.053 47.517 98.053z" fill="#491556"/><path fill-rule="evenodd" clip-rule="evenodd" d="M-141.541 484.45s1.975-46.852-101.639-44.643c-103.614 2.209-57.216-246.107 135.191-278.815 192.406-32.708 36.426 153.261 292.345 81.303 255.92-71.958 223.229 52.333 175.595 167.28-47.635 114.946-240.975 188.773-392.285 129.898-151.31-58.875-2.17-70.032-2.17-70.032L-141.54 484.45z" fill="#DC1010"/><mask id="b" maskUnits="userSpaceOnUse" x="-314" y="134" width="717" height="458"><path fill-rule="evenodd" clip-rule="evenodd" d="M-141.541 484.45s1.975-46.852-101.639-44.643c-103.614 2.209-57.216-246.107 135.191-278.815 192.406-32.708 36.426 153.261 292.345 81.303 255.92-71.958 223.229 52.333 175.595 167.28-47.635 114.946-240.975 188.773-392.285 129.898-151.31-58.875-2.17-70.032-2.17-70.032L-141.54 484.45z" fill="#fff"/></mask><g mask="url(#b)"><path fill-rule="evenodd" clip-rule="evenodd" d="M-73.388 258.276S-85.53 166.693-27.62 133.05c57.909-33.643-13.076 91.583 91.533 72.893 104.609-18.691 234.373 58.383 234.373 58.383L197.793 361.21 85.929 390.63" fill="#491556"/></g><path fill-rule="evenodd" clip-rule="evenodd" d="M-55.107 75.508s32.767-22.2 85.93 5.795c53.238 28.036 94.335-.934 112.081-43.922C160.65-5.607 244.711-2.804 244.711-2.804L30.404-170.083l-85.51 245.59z" fill="#DC1010"/></g><path d="M98.11 516.444l-.464 5.381.464-5.381zm5.843-4.916l-5.38-.464 5.38.464zm-4.916-5.844l.463-5.38-.463 5.38zm33.232 4.746l-2.266-4.902 2.266 4.902zm-7.168-2.636l-4.901 2.266 4.901-2.266zm2.636-7.167l2.266 4.901-2.266-4.901zm-30.09 21.198c5.942.511 11.174-3.891 11.686-9.834l-10.76-.927-.927 10.761zm-11.47-1.915a73.548 73.548 0 0011.47 1.915l.926-10.761a62.656 62.656 0 01-9.784-1.633l-2.612 10.479zm-7.867-13.092c-1.443 5.787 2.08 11.649 7.867 13.092l2.612-10.479-10.479-2.613zm13.092-7.866c-5.787-1.443-11.649 2.078-13.092 7.866l10.48 2.613 2.612-10.479zm8.098 1.352a51.88 51.88 0 01-8.098-1.352l-2.613 10.479a62.656 62.656 0 009.784 1.633l.927-10.76zm9.833 11.687c.512-5.942-3.89-11.175-9.833-11.687l-.927 10.76 10.76.927zm65.941-45.973c1.443-5.788-2.079-11.649-7.867-13.092l-2.612 10.479 10.479 2.613zm-40.74 49.314c19.589-9.054 35.092-26.663 40.74-49.314l-10.479-2.613c-4.827 19.358-18.059 34.389-34.792 42.123l4.531 9.804zM120.2 510.06c2.502 5.414 8.92 7.774 14.334 5.272l-4.531-9.804-9.803 4.532zm5.272-14.335c-5.415 2.502-7.775 8.92-5.272 14.335l9.803-4.532-4.531-9.803zm28.843-34.933c-4.005 16.066-14.968 28.519-28.843 34.933l4.531 9.803c16.733-7.734 29.965-22.766 34.792-42.123l-10.48-2.613zm13.092-7.866c-5.787-1.443-11.649 2.079-13.092 7.866l10.48 2.613 2.612-10.479z" fill="#fff"/></g><defs><clipPath id="clip0"><path fill="#fff" d="M0 0h360v1137H0z"/></clipPath></defs></svg>