<svg width="178" height="127" fill="none" xmlns="http://www.w3.org/2000/svg"><g clip-path="url(#clip0)"><path d="M24.584 8.466c10.056-2.417 31.822-6.752 58.55-6.752 27.641 0 55.749 4.637 68.262 6.996 3.949.744 6.983 3.826 7.638 7.788 1.341 8.122 3.309 22.378 3.309 36.079 0 14.385-3.706 29.734-5.981 37.8-.966 3.426-3.773 5.943-7.28 6.584-10.617 1.943-34.401 5.677-60.36 5.677-25.729 0-49.75-3.668-60.734-5.625-3.726-.664-6.66-3.428-7.519-7.113-1.884-8.084-4.877-22.9-5.41-37.337-.53-14.367 1.36-28.786 2.654-36.682.6-3.655 3.273-6.55 6.871-7.415z" fill="#fff" stroke="#616161" stroke-width=".755"/><mask id="a" maskUnits="userSpaceOnUse" x="14" y="1" width="149" height="103"><path d="M24.584 8.466c10.056-2.417 31.822-6.752 58.55-6.752 27.641 0 55.749 4.637 68.262 6.996 3.949.744 6.983 3.826 7.638 7.788 1.341 8.122 3.309 22.378 3.309 36.079 0 14.385-3.706 29.734-5.981 37.8-.966 3.426-3.773 5.943-7.28 6.584-10.617 1.943-34.401 5.677-60.36 5.677-25.729 0-49.75-3.668-60.734-5.625-3.726-.664-6.66-3.428-7.519-7.113-1.884-8.084-4.877-22.9-5.41-37.337-.53-14.367 1.36-28.786 2.654-36.682.6-3.655 3.273-6.55 6.871-7.415z" fill="#fff" stroke="#fff" stroke-width=".755"/></mask><g mask="url(#a)"><path fill-rule="evenodd" clip-rule="evenodd" d="M3.39 98.026c0-4.25 3.248-7.788 7.486-8.101 12.22-.903 37.631-2.552 62.91-2.79 25.199-.236 50.634.927 62.959 1.6 4.304.236 7.645 3.802 7.645 8.112v4.744a8.19 8.19 0 01-8.113 8.189l-124.62 1.17a8.19 8.19 0 01-8.267-8.189v-4.735z" fill="#F1F7F9"/><path d="M43.882 96.471c.537 0 .998.09 1.383.272.385.175.724.455 1.015.84l-.831.814c-.152-.315-.353-.548-.604-.7-.251-.157-.57-.236-.955-.236-.35 0-.621.067-.814.201a.597.597 0 00-.28.516c0 .199.096.356.289.473.193.117.54.22 1.042.307.525.099.942.221 1.252.367.309.146.534.33.674.552.146.216.219.487.219.814 0 .356-.103.665-.307.928-.198.257-.478.455-.84.595-.356.14-.765.21-1.226.21-.636 0-1.158-.087-1.567-.262a2.344 2.344 0 01-.98-.814l.718-.858c.215.356.463.604.744.744.28.134.627.201 1.041.201.374 0 .657-.058.85-.175a.55.55 0 00.297-.499c0-.158-.093-.289-.28-.394-.18-.105-.508-.204-.98-.298-.543-.11-.978-.242-1.305-.394-.32-.151-.554-.338-.7-.56-.146-.222-.219-.496-.219-.823 0-.344.093-.653.28-.928a1.84 1.84 0 01.814-.656c.362-.158.785-.237 1.27-.237zm5.406 1.401c.706 0 1.255.201 1.646.604.397.403.595.96.595 1.672s-.198 1.27-.595 1.672c-.391.403-.94.604-1.646.604s-1.258-.201-1.654-.604c-.392-.402-.587-.96-.587-1.672s.196-1.27.587-1.672c.396-.403.948-.604 1.654-.604zm0 .893c-.338 0-.598.117-.78.35-.174.228-.262.572-.262 1.033 0 .461.088.809.263 1.042.18.228.44.341.78.341.338 0 .594-.113.77-.341.18-.233.27-.581.27-1.042 0-.46-.09-.805-.27-1.033-.176-.233-.432-.35-.77-.35zm9.294 3.3c-.14.111-.315.199-.525.263-.21.064-.432.096-.666.096-.974 0-1.464-.44-1.47-1.322v-2.25h-1.9v3.485h-1.2v-3.484h-.76v-.893h.76v-.526c0-.478.147-.846.439-1.103.291-.256.68-.385 1.164-.385.18 0 .344.02.49.061.146.041.266.097.359.167l-.131.796a.891.891 0 00-.473-.122c-.467 0-.7.225-.7.674v.438h1.952v-1.007l1.2-.333v1.34h1.426v.893H57.12v2.057c0 .204.053.356.158.455.11.099.262.149.455.149a1 1 0 00.665-.245l.184.796zm7.732-4.105l-1.391 4.377H63.53l-.955-3.09-.919 3.09h-1.383l-1.392-4.377h1.27l.875 3.414.98-3.414h1.182l.98 3.414.876-3.414h1.27zm4.735 3.65c.123 0 .222-.012.298-.035l-.088.727a1.266 1.266 0 01-.569.122c-.56 0-.896-.219-1.007-.656a1.195 1.195 0 01-.595.49 2.489 2.489 0 01-.954.166c-.426 0-.759-.096-.998-.289-.24-.192-.359-.469-.359-.831 0-.712.57-1.173 1.707-1.383l1.05-.202v-.21c0-.233-.066-.417-.2-.551-.13-.14-.31-.21-.543-.21-.269 0-.488.058-.657.175-.17.116-.286.306-.35.569l-.954-.403c.093-.38.303-.677.63-.893.327-.216.753-.324 1.278-.324.624 0 1.112.137 1.462.412.35.268.525.668.525 1.199v1.795c0 .116.026.201.079.253.053.053.134.079.245.079zm-2.539 0c.257 0 .49-.061.7-.184.217-.128.325-.3.325-.516v-.455l-.937.21a1.102 1.102 0 00-.447.192.394.394 0 00-.14.324c0 .14.044.248.132.324.087.07.21.105.367.105zm6.043-3.738c.204 0 .362.032.472.096l-.148 1.05c-.135-.087-.318-.13-.552-.13-.286 0-.534.105-.744.315-.204.204-.306.493-.306.866v2.268h-1.2V97.96h1.042l.079.858c.24-.63.691-.946 1.357-.946zm5.218 2.259c0 .163-.011.321-.035.472h-3.099c.123.619.487.928 1.094.928.251 0 .459-.046.622-.14a.745.745 0 00.342-.402l.98.359c-.14.35-.376.618-.71.805-.326.181-.737.271-1.234.271-.723 0-1.283-.198-1.68-.595-.397-.403-.596-.963-.596-1.681 0-.718.193-1.275.578-1.672.385-.403.928-.604 1.629-.604.676 0 1.196.196 1.558.587.367.39.551.948.551 1.672zm-2.118-1.375c-.292 0-.526.085-.7.254-.17.17-.278.42-.325.753h2.04c-.047-.327-.157-.575-.333-.744a.922.922 0 00-.682-.263zm10.38 2.609v.972h-4.456v-5.778h4.333v.972h-3.125v1.435h2.46v.928h-2.46v1.471h3.248zm3.57-3.493c.472 0 .852.137 1.138.412.291.274.437.668.437 1.181v2.872H91.98v-2.521c0-.666-.26-.998-.78-.998a.977.977 0 00-.717.297c-.192.199-.289.502-.289.911v2.311h-1.2V97.96h1.078l.035.779c.145-.286.347-.502.604-.648.257-.146.554-.219.893-.219zm5.472 3.642c.479 0 .846.105 1.103.315.263.21.394.511.394.902 0 .467-.216.831-.648 1.094-.431.263-1 .394-1.707.394-.73 0-1.272-.096-1.628-.289-.35-.193-.525-.455-.525-.788 0-.198.067-.37.201-.516.134-.146.333-.251.595-.316a1.144 1.144 0 01-.472-.341.851.851 0 01-.175-.534c0-.21.06-.391.183-.543a1.11 1.11 0 01.508-.341 1.368 1.368 0 01-.508-.49 1.389 1.389 0 01-.175-.7c0-.462.178-.824.534-1.086.362-.269.852-.403 1.471-.403.315 0 .61.038.884.114.076-.344.222-.613.438-.806.222-.198.52-.285.893-.262l.157.858a1.422 1.422 0 00-.183-.009c-.216 0-.397.038-.543.114a.656.656 0 00-.298.306 1.317 1.317 0 01.666 1.173c0 .456-.181.817-.543 1.086-.356.262-.847.394-1.471.394-.286 0-.549-.026-.788-.079-.228.058-.341.19-.341.394 0 .117.044.207.131.271.088.059.21.088.368.088h1.48zm-.849-2.889a.84.84 0 00-.578.201.68.68 0 00-.219.526c0 .221.073.4.22.534a.839.839 0 00.577.201c.24 0 .432-.067.578-.201a.678.678 0 00.227-.534.668.668 0 00-.227-.526c-.146-.134-.339-.201-.578-.201zm.088 4.771c.408 0 .723-.053.945-.158.222-.099.333-.227.333-.385a.31.31 0 00-.158-.28c-.1-.058-.265-.087-.499-.087h-1.19c-.485 0-.727.131-.727.394 0 .163.108.288.324.376.216.093.54.14.972.14zm3.603-6.067c-.496 0-.745-.213-.745-.639 0-.432.249-.647.745-.647s.744.215.744.647c0 .426-.248.64-.745.64zm.595 5.008h-1.2V97.96h1.2v4.377zm3.88-4.465c.473 0 .852.137 1.138.412.292.274.438.668.438 1.181v2.872h-1.2v-2.521c0-.666-.259-.998-.779-.998a.98.98 0 00-.718.297c-.192.199-.288.502-.288.911v2.311h-1.2V97.96h1.077l.035.779c.146-.286.347-.502.604-.648.257-.146.554-.219.893-.219zm6.899 2.259c0 .163-.011.321-.035.472h-3.099c.123.619.488.928 1.095.928.251 0 .458-.046.621-.14a.742.742 0 00.342-.402l.98.359c-.14.35-.376.618-.709.805-.327.181-.738.271-1.234.271-.724 0-1.284-.198-1.681-.595-.397-.403-.595-.963-.595-1.681 0-.718.192-1.275.577-1.672.386-.403.928-.604 1.629-.604.677 0 1.196.196 1.558.587.368.39.551.948.551 1.672zm-2.118-1.375c-.292 0-.525.085-.7.254-.17.17-.278.42-.324.753h2.039c-.046-.327-.157-.575-.332-.744-.175-.175-.403-.263-.683-.263zm7.214 1.375c0 .163-.012.321-.035.472h-3.099c.122.619.487.928 1.094.928.251 0 .458-.046.622-.14a.745.745 0 00.341-.402l.98.359c-.14.35-.376.618-.709.805-.327.181-.738.271-1.234.271-.724 0-1.284-.198-1.681-.595-.397-.403-.595-.963-.595-1.681 0-.718.192-1.275.578-1.672.385-.403.928-.604 1.628-.604.677 0 1.196.196 1.558.587.368.39.552.948.552 1.672zm-2.119-1.375c-.292 0-.525.085-.7.254-.169.17-.277.42-.324.753h2.04c-.047-.327-.158-.575-.333-.744-.175-.175-.403-.263-.683-.263zm5.603-.884c.204 0 .362.032.473.096l-.149 1.05c-.134-.087-.318-.13-.551-.13-.286 0-.534.105-.745.315-.204.204-.306.493-.306.866v2.268h-1.199V97.96h1.041l.079.858c.24-.63.692-.946 1.357-.946z" fill="#282A39"/><rect x="32" y="97.067" width="6" height="5.983" rx="2" fill="#6BDFFC"/><path fill-rule="evenodd" clip-rule="evenodd" d="M58.489 67.406a2.266 2.266 0 012.356-2.264l33.233 1.326a2.266 2.266 0 012.176 2.264v5.348a2.266 2.266 0 01-2.266 2.266H60.755a2.266 2.266 0 01-2.266-2.266v-6.674zM34.32 53.934c0-1.199.933-2.19 2.13-2.262l33.233-1.988a2.266 2.266 0 012.401 2.262v6.626a2.266 2.266 0 01-2.266 2.266H36.585a2.266 2.266 0 01-2.266-2.266v-4.638zM30 20.873c0-4.21 3.182-7.726 7.377-8.076 10.556-.88 30.945-2.358 51.232-2.577 20.196-.218 40.576.807 51.223 1.46 4.271.261 7.558 3.811 7.558 8.09v3.977a8.19 8.19 0 01-8.102 8.19l-101.01 1.09A8.19 8.19 0 0130 24.839v-3.965z" fill="#F1F7F9"/><path d="M47.258 24.337h-1.392l-1.68-5.778h1.304l1.12 4.824 1.156-4.824h1.155l1.173 4.824 1.121-4.824h1.243l-1.68 5.778H49.42l-.805-3.152-.271-1.365h-.018l-.271 1.365-.797 3.152zm9.695-2.206c0 .163-.012.32-.035.472H53.82c.123.62.487.928 1.094.928.251 0 .459-.046.622-.14a.747.747 0 00.341-.402l.98.358c-.14.35-.376.62-.708.806-.327.18-.739.271-1.235.271-.723 0-1.283-.198-1.68-.595-.397-.403-.596-.963-.596-1.68 0-.719.193-1.276.578-1.673.385-.402.928-.604 1.628-.604.677 0 1.197.196 1.559.587.367.39.551.948.551 1.672zm-2.118-1.375c-.292 0-.526.085-.7.254-.17.17-.278.42-.325.753h2.04c-.047-.327-.157-.575-.333-.744a.922.922 0 00-.682-.263zm5.699-.884c.584 0 1.042.201 1.374.604.333.403.5.963.5 1.681 0 .712-.167 1.27-.5 1.672-.332.397-.79.595-1.374.595a1.6 1.6 0 01-.902-.254 1.64 1.64 0 01-.569-.7l-.044.867H57.96v-6.294h1.2v2.634a1.49 1.49 0 01.551-.586 1.52 1.52 0 01.823-.219zm-.359 3.633c.327 0 .58-.117.762-.35.18-.233.271-.57.271-1.007 0-.438-.09-.773-.271-1.006-.181-.234-.435-.35-.762-.35a.902.902 0 00-.71.306c-.18.204-.282.49-.306.858v.385c.024.373.126.662.307.866.18.199.417.298.709.298zm8.322-4.946c.904 0 1.604.25 2.1.753.497.502.745 1.214.745 2.136 0 .922-.248 1.634-.745 2.136-.496.502-1.196.753-2.1.753h-2.233v-5.778h2.233zm-.062 4.815c.549 0 .96-.164 1.234-.49.28-.333.42-.812.42-1.436 0-.625-.14-1.1-.42-1.427-.274-.333-.685-.499-1.234-.499h-.963v3.852h.963zm8.087-1.243c0 .163-.012.32-.035.472h-3.1c.123.62.488.928 1.095.928.251 0 .458-.046.622-.14a.747.747 0 00.341-.402l.98.358c-.14.35-.376.62-.709.806-.326.18-.738.271-1.234.271-.724 0-1.284-.198-1.68-.595-.398-.403-.596-.963-.596-1.68 0-.719.193-1.276.578-1.673.385-.402.928-.604 1.628-.604.677 0 1.197.196 1.558.587.368.39.552.948.552 1.672zm-2.119-1.375c-.291 0-.525.085-.7.254-.17.17-.277.42-.324.753h2.04c-.047-.327-.158-.575-.333-.744-.175-.175-.403-.263-.683-.263zm4.824 3.668c-.974 0-1.651-.28-2.03-.84l.7-.718c.116.251.283.429.499.534.221.1.493.149.814.149.257 0 .455-.035.595-.105.14-.07.21-.166.21-.29 0-.098-.067-.183-.201-.253-.129-.07-.353-.137-.674-.201-.671-.134-1.144-.31-1.418-.526-.269-.221-.403-.519-.403-.892 0-.246.076-.476.227-.692.152-.216.377-.388.674-.517.298-.134.654-.2 1.069-.2.49 0 .887.075 1.19.227.303.146.557.38.762.7l-.744.63a1.295 1.295 0 00-.482-.516c-.187-.111-.423-.167-.709-.167-.24 0-.432.041-.578.123-.14.082-.21.181-.21.298 0 .122.07.224.21.306.14.082.388.158.744.228.637.128 1.086.297 1.349.507.268.205.402.49.402.858 0 .409-.175.739-.525.99-.344.245-.835.367-1.47.367zm3.557-5.095c-.497 0-.745-.213-.745-.639 0-.432.248-.648.745-.648.496 0 .744.216.744.648 0 .426-.248.64-.744.64zm.595 5.008h-1.2V19.96h1.2v4.377zm3.932-.823c.48 0 .847.105 1.103.315.263.21.394.51.394.902 0 .467-.216.831-.647 1.094-.432.263-1.001.394-1.707.394-.73 0-1.273-.096-1.629-.289-.35-.193-.525-.455-.525-.788 0-.198.067-.37.201-.516.135-.146.333-.251.596-.316a1.152 1.152 0 01-.473-.34.85.85 0 01-.175-.535c0-.21.061-.39.184-.543.122-.151.291-.265.508-.341a1.368 1.368 0 01-.508-.49 1.387 1.387 0 01-.175-.7c0-.462.178-.824.534-1.086.361-.269.852-.403 1.47-.403.316 0 .61.038.885.114.075-.344.221-.613.437-.806.222-.198.52-.285.893-.262l.158.858a1.422 1.422 0 00-.184-.009c-.216 0-.397.038-.543.114a.656.656 0 00-.297.306 1.317 1.317 0 01.665 1.173c0 .456-.181.817-.543 1.086-.356.262-.846.394-1.47.394-.287 0-.55-.026-.788-.079-.228.058-.342.19-.342.394 0 .117.044.207.131.271.088.059.21.088.368.088h1.48zm-.849-2.889a.84.84 0 00-.577.201.68.68 0 00-.22.526c0 .221.074.4.22.534a.84.84 0 00.577.2c.24 0 .432-.066.578-.2a.678.678 0 00.228-.534.668.668 0 00-.228-.526c-.146-.134-.338-.201-.578-.201zm.088 4.771c.408 0 .724-.053.945-.158.222-.099.333-.227.333-.385a.31.31 0 00-.158-.28c-.099-.058-.265-.087-.499-.087h-1.19c-.484 0-.727.13-.727.393 0 .164.108.29.324.377.216.093.54.14.972.14zm5.608-5.524c.472 0 .852.137 1.138.412.291.274.437.668.437 1.181v2.872h-1.199v-2.521c0-.666-.26-.998-.78-.998a.977.977 0 00-.717.297c-.193.199-.289.502-.289.91v2.312h-1.2V19.96h1.078l.035.779c.145-.286.347-.502.604-.648.256-.146.554-.219.893-.219zm6.9 2.259c0 .163-.013.32-.036.472h-3.099c.123.62.487.928 1.094.928.251 0 .459-.046.622-.14a.747.747 0 00.341-.402l.98.358c-.14.35-.376.62-.708.806-.327.18-.739.271-1.235.271-.723 0-1.284-.198-1.68-.595-.397-.403-.596-.963-.596-1.68 0-.719.193-1.276.578-1.673.385-.402.928-.604 1.628-.604.677 0 1.197.196 1.559.587.367.39.551.948.551 1.672zm-2.12-1.375c-.291 0-.525.085-.7.254-.169.17-.277.42-.324.753h2.04c-.047-.327-.157-.575-.333-.744a.922.922 0 00-.682-.263zm5.604-.884c.204 0 .361.032.472.096l-.149 1.05c-.134-.087-.318-.13-.551-.13-.286 0-.534.105-.744.315-.204.204-.307.493-.307.866v2.268h-1.199V19.96h1.042l.079.858c.239-.63.691-.946 1.357-.946z" fill="#282A39"/><rect x="118.913" y="66.863" width="37.765" height="11.298" rx="2.266" fill="#F1F7F9"/><path d="M14.315 4.252c-6.754 4.344-9.467 9.417-9.5 15.114m3.435-3.249c1.765-5.392 2.885-5.434 5.784-8.006m140.412 96.966c5.738-3.116 5.703-3.698 8.304-7.103m-3.936 7.528c2.277-1.355 3.585-2.108 4.967-4.132" stroke="#282A39" stroke-width=".755"/><g filter="url(#filter0_d)"><path fill-rule="evenodd" clip-rule="evenodd" d="M40 71.968c0-4.196 3.16-7.705 7.34-8.07 10.517-.919 30.847-2.46 51.074-2.69 20.132-.227 40.446.842 51.057 1.523 4.258.274 7.529 3.818 7.529 8.085v4.863a8.19 8.19 0 01-8.097 8.19l-100.62 1.138A8.19 8.19 0 0140 76.817v-4.85z" fill="#B2ADE3"/></g><path d="M62.882 69.471c.537 0 .998.09 1.383.272.385.175.724.455 1.015.84l-.831.814c-.152-.315-.353-.548-.604-.7-.251-.157-.57-.236-.955-.236-.35 0-.621.067-.814.201a.597.597 0 00-.28.516c0 .199.096.356.289.473.193.117.54.22 1.042.307.525.099.942.221 1.252.367.309.146.534.33.674.552.146.216.219.487.219.814 0 .356-.103.665-.307.928-.198.257-.478.455-.84.595a3.33 3.33 0 01-1.226.21c-.636 0-1.158-.087-1.567-.262a2.337 2.337 0 01-.98-.815l.718-.857c.215.356.463.604.744.744.28.134.627.201 1.041.201.374 0 .657-.058.85-.175a.55.55 0 00.297-.499c0-.158-.093-.289-.28-.394-.18-.105-.508-.204-.98-.298-.543-.11-.978-.242-1.305-.394-.32-.151-.554-.338-.7-.56-.146-.222-.219-.496-.219-.823 0-.344.093-.653.28-.928a1.84 1.84 0 01.814-.656c.362-.158.785-.237 1.27-.237zm5.406 1.401c.706 0 1.255.201 1.646.604.397.403.595.96.595 1.672s-.198 1.27-.595 1.672c-.391.403-.94.604-1.646.604s-1.258-.201-1.654-.604c-.391-.402-.587-.96-.587-1.672s.196-1.27.587-1.672c.396-.403.948-.604 1.654-.604zm0 .893c-.338 0-.598.117-.78.35-.174.228-.262.572-.262 1.033 0 .461.088.809.263 1.042.18.228.44.341.78.341.338 0 .594-.113.77-.341.18-.233.27-.58.27-1.042 0-.46-.09-.805-.27-1.033-.176-.233-.432-.35-.77-.35zm9.294 3.3c-.14.111-.315.199-.525.263-.21.064-.432.096-.666.096-.974 0-1.464-.44-1.47-1.322v-2.25h-1.9v3.485h-1.2v-3.484h-.76v-.893h.76v-.526c0-.478.147-.846.439-1.103.291-.256.68-.385 1.164-.385.18 0 .344.02.49.061.146.041.266.097.359.167l-.131.796a.891.891 0 00-.473-.122c-.467 0-.7.225-.7.674v.438h1.952v-1.007l1.2-.333v1.34h1.426v.893H76.12v2.057c0 .204.053.356.158.455.11.1.262.149.455.149a1 1 0 00.665-.245l.184.796zm7.732-4.105l-1.391 4.377H82.53l-.955-3.09-.919 3.09h-1.383l-1.392-4.377h1.27l.875 3.414.98-3.414h1.182l.98 3.414.876-3.414h1.27zm4.735 3.65c.123 0 .222-.011.298-.035l-.088.727a1.256 1.256 0 01-.569.122c-.56 0-.896-.219-1.007-.656-.128.216-.326.38-.595.49a2.49 2.49 0 01-.954.166c-.426 0-.759-.096-.998-.289-.24-.192-.359-.47-.359-.831 0-.712.57-1.173 1.707-1.383l1.05-.202v-.21c0-.233-.066-.417-.2-.551-.13-.14-.31-.21-.543-.21-.269 0-.488.058-.657.175-.17.116-.286.306-.35.569l-.954-.403c.093-.38.303-.677.63-.893.327-.216.753-.324 1.278-.324.624 0 1.112.137 1.462.412.35.268.525.668.525 1.199v1.794c0 .117.026.202.079.254.053.053.134.08.245.08zm-2.539 0c.257 0 .49-.061.7-.184.217-.128.325-.3.325-.516v-.455l-.937.21c-.198.046-.347.11-.447.192a.393.393 0 00-.14.324c0 .14.044.248.132.324.087.07.21.105.367.105zm6.043-3.738c.204 0 .362.032.472.096l-.148 1.05c-.135-.087-.318-.13-.552-.13-.286 0-.534.105-.744.315-.204.204-.306.493-.306.866v2.268h-1.2V70.96h1.042l.079.858c.24-.63.691-.946 1.357-.946zm5.218 2.259c0 .163-.011.32-.035.472h-3.099c.123.62.487.928 1.094.928.251 0 .459-.046.622-.14a.747.747 0 00.342-.402l.98.358c-.14.35-.376.62-.71.806-.326.18-.737.271-1.234.271-.723 0-1.283-.198-1.68-.595-.397-.403-.596-.963-.596-1.68 0-.719.193-1.276.578-1.673.385-.403.928-.604 1.629-.604.676 0 1.196.196 1.558.587.367.39.551.948.551 1.672zm-2.118-1.375c-.292 0-.526.085-.7.254-.17.17-.278.42-.325.753h2.04c-.047-.327-.157-.575-.333-.744a.922.922 0 00-.682-.263zm10.38 2.609v.972h-4.456v-5.778h4.333v.972h-3.125v1.435h2.46v.928h-2.46v1.471h3.248zm3.57-3.493c.472 0 .852.137 1.138.412.291.274.437.668.437 1.181v2.872h-1.199v-2.521c0-.666-.26-.998-.779-.998a.98.98 0 00-.718.297c-.193.199-.289.502-.289.91v2.312h-1.199V70.96h1.077l.035.779c.146-.286.347-.502.604-.648.256-.146.554-.219.893-.219zm5.472 3.642c.479 0 .846.105 1.103.315.263.21.394.51.394.902 0 .467-.216.831-.648 1.094-.432.263-1.001.394-1.707.394-.729 0-1.272-.096-1.628-.289-.35-.193-.525-.455-.525-.788 0-.198.067-.37.201-.516.134-.146.333-.251.595-.316a1.148 1.148 0 01-.472-.34.85.85 0 01-.175-.535.84.84 0 01.183-.543c.123-.151.292-.265.508-.341a1.37 1.37 0 01-.508-.49 1.394 1.394 0 01-.175-.7c0-.462.178-.824.534-1.086.362-.269.852-.403 1.471-.403.315 0 .61.038.884.114.076-.344.222-.613.438-.806.222-.198.519-.285.893-.262l.157.858a1.407 1.407 0 00-.183-.009c-.216 0-.397.038-.543.114a.66.66 0 00-.298.306 1.319 1.319 0 01.666 1.173c0 .456-.181.817-.543 1.086-.356.263-.846.394-1.471.394-.286 0-.549-.026-.788-.079-.227.058-.341.19-.341.394 0 .117.044.207.131.271a.66.66 0 00.368.088h1.479zm-.849-2.889a.842.842 0 00-.578.201.68.68 0 00-.219.526c0 .221.073.4.219.534a.842.842 0 00.578.2c.239 0 .432-.066.578-.2a.677.677 0 00.227-.534.667.667 0 00-.227-.526c-.146-.134-.339-.201-.578-.201zm.088 4.771c.408 0 .723-.052.945-.158.222-.099.333-.227.333-.385a.31.31 0 00-.158-.28c-.099-.058-.265-.087-.499-.087h-1.19c-.485 0-.727.13-.727.393 0 .164.108.29.324.377.216.093.54.14.972.14zm3.603-6.067c-.497 0-.745-.213-.745-.639 0-.432.248-.647.745-.647.496 0 .744.215.744.647 0 .426-.248.64-.744.64zm.595 5.008h-1.199V70.96h1.199v4.377zm3.88-4.465c.473 0 .852.137 1.138.412.292.274.438.668.438 1.181v2.872h-1.2v-2.521c0-.666-.259-.998-.779-.998a.98.98 0 00-.718.297c-.192.199-.288.502-.288.91v2.312h-1.2V70.96h1.077l.035.779c.146-.286.347-.502.604-.648.257-.146.554-.219.893-.219zm6.899 2.259c0 .163-.011.32-.035.472h-3.099c.123.62.488.928 1.095.928.251 0 .458-.046.621-.14a.745.745 0 00.342-.402l.98.358c-.14.35-.376.62-.709.806-.327.18-.738.271-1.234.271-.724 0-1.284-.198-1.681-.595-.397-.403-.595-.963-.595-1.68 0-.719.192-1.276.577-1.673.386-.403.928-.604 1.629-.604.677 0 1.196.196 1.558.587.368.39.551.948.551 1.672zm-2.118-1.375c-.292 0-.525.085-.7.254-.17.17-.278.42-.324.753h2.039c-.046-.327-.157-.575-.332-.744-.175-.175-.403-.263-.683-.263zm7.214 1.375c0 .163-.012.32-.035.472h-3.099c.122.62.487.928 1.094.928.251 0 .458-.046.622-.14a.747.747 0 00.341-.402l.98.358c-.14.35-.376.62-.709.806-.327.18-.738.271-1.234.271-.724 0-1.284-.198-1.681-.595-.397-.403-.595-.963-.595-1.68 0-.719.192-1.276.578-1.673.385-.403.928-.604 1.628-.604.677 0 1.196.196 1.558.587.368.39.552.948.552 1.672zm-2.119-1.375c-.292 0-.525.085-.7.254-.169.17-.277.42-.324.753h2.04c-.047-.327-.158-.575-.333-.744-.175-.175-.403-.263-.683-.263zm5.603-.884c.204 0 .362.032.473.096l-.149 1.05c-.134-.087-.318-.13-.551-.13-.286 0-.534.105-.745.315-.204.204-.306.493-.306.866v2.268h-1.199V70.96h1.041l.079.858c.24-.63.692-.946 1.357-.946z" fill="#FEFEFE"/><rect x="47" y="71.14" width="6" height="5.983" rx="2" fill="#FEFFFF"/><path fill-rule="evenodd" clip-rule="evenodd" d="M104 45.735c0-4.064 2.973-7.504 7.009-7.981 7.832-.927 21.162-2.261 34.43-2.473 13.144-.21 26.398.68 34.294 1.354 4.149.354 7.267 3.845 7.267 8.01v5.145a8.19 8.19 0 01-8.059 8.189l-66.62 1.062A8.19 8.19 0 01104 50.852v-5.117z" fill="#F1F7F9"/><path d="M123.571 45.53v1.463h2.46v.98h-2.46v2.364h-1.208v-5.778h4.324v.972h-3.116zm6.285.342c.204 0 .361.032.472.096l-.149 1.05c-.134-.087-.318-.13-.551-.13-.286 0-.534.105-.744.315-.204.204-.307.493-.307.866v2.268h-1.199V45.96h1.042l.079.858c.239-.63.691-.946 1.357-.946zm3.143 0c.706 0 1.255.202 1.646.604.397.403.595.96.595 1.672s-.198 1.27-.595 1.672c-.391.403-.94.604-1.646.604s-1.257-.201-1.654-.604c-.391-.402-.587-.96-.587-1.672s.196-1.27.587-1.672c.397-.402.948-.604 1.654-.604zm0 .893c-.338 0-.598.117-.779.35-.175.228-.262.572-.262 1.033 0 .461.087.808.262 1.042.181.228.441.341.779.341.339 0 .596-.113.771-.341.181-.233.271-.58.271-1.042 0-.46-.09-.805-.271-1.033-.175-.233-.432-.35-.771-.35zm5.879-.893c.473 0 .852.137 1.138.412.292.274.438.668.438 1.181v2.872h-1.2v-2.521c0-.666-.259-.998-.779-.998a.98.98 0 00-.718.297c-.192.199-.289.502-.289.91v2.312h-1.199V45.96h1.077l.035.779c.146-.286.347-.502.604-.648.257-.146.554-.219.893-.219zm5.78 4.193c-.14.111-.318.199-.534.263-.21.064-.432.096-.666.096-.974 0-1.462-.44-1.462-1.322v-2.25h-.796v-.892h.796v-1.007l1.2-.333v1.34h1.418v.893h-1.418v2.057c0 .403.201.604.604.604.257 0 .481-.082.674-.245l.184.796zm3.791-1.532h-3.09V47.5h3.09v1.033zm8.625.832v.972h-4.456v-5.778h4.333v.972h-3.125v1.435h2.46v.928h-2.46v1.471h3.248zm3.57-3.493c.472 0 .852.137 1.138.412.292.274.437.668.437 1.181v2.872h-1.199v-2.521c0-.666-.26-.998-.779-.998a.98.98 0 00-.718.297c-.192.199-.289.502-.289.91v2.312h-1.199V45.96h1.077l.035.779c.146-.286.347-.502.604-.648.257-.146.554-.219.893-.219zm7.048-1.83v6.295h-1.068l-.052-.814a1.538 1.538 0 01-.578.656c-.251.164-.54.245-.867.245-.584 0-1.042-.198-1.374-.595-.333-.403-.499-.96-.499-1.672 0-.718.166-1.278.499-1.68.332-.403.79-.605 1.374-.605.315 0 .59.073.823.219.233.14.414.336.543.587v-2.636h1.199zm-2.215 5.463c.315 0 .563-.114.744-.341.181-.228.272-.552.272-.972v-.088c0-.414-.091-.735-.272-.962a.89.89 0 00-.744-.35c-.321 0-.572.116-.753.35-.181.233-.271.569-.271 1.006 0 .438.09.773.271 1.007.181.233.432.35.753.35z" fill="#282A39"/><rect opacity=".5" x="111.61" y="45.213" width="6" height="5.983" rx="2" fill="#665CC8"/></g></g><rect opacity=".5" x="38" y="53.191" width="6" height="5.983" rx="2" fill="#665CC8"/><path fill-rule="evenodd" clip-rule="evenodd" d="M1.39 47.88c0-4.13 3.064-7.604 7.172-8.028 8.983-.927 25.159-2.357 41.257-2.576 15.986-.219 32.112.754 41.174 1.435 4.204.316 7.397 3.833 7.397 8.048v5.007a8.19 8.19 0 01-8.078 8.189l-80.62 1.1a8.19 8.19 0 01-8.302-8.19V47.88z" fill="#F1F7F9"/><path d="M38.603 49.948c0 .782-.21 1.372-.63 1.769-.415.397-1.028.595-1.839.595-.811 0-1.427-.198-1.847-.595-.414-.397-.622-.987-.622-1.769v-3.501h1.208v3.449c0 .484.102.843.307 1.077.21.233.528.35.954.35.426 0 .741-.117.946-.35.204-.234.306-.593.306-1.077v-3.45h1.217v3.502zm4.673 2.276l-1.26-2.092-1.235 2.093h-1.383l1.987-2.916-1.847-2.862h1.427l1.173 2.013 1.173-2.013h1.304l-1.855 2.819 1.96 2.959h-1.444zm7.274 0h-1.392l-1.68-5.777h1.304l1.12 4.823 1.156-4.823h1.155l1.173 4.823 1.121-4.823h1.243l-1.68 5.777h-1.358l-.805-3.151-.271-1.366h-.018l-.271 1.366-.797 3.151zm8.281-4.464c.204 0 .362.032.473.096l-.149 1.05c-.134-.087-.318-.13-.552-.13-.285 0-.534.104-.744.314-.204.205-.306.494-.306.867v2.267h-1.2v-4.377h1.042l.08.858c.238-.63.69-.945 1.356-.945zm1.82-.543c-.496 0-.744-.213-.744-.639 0-.432.248-.648.744-.648s.744.216.744.648c0 .426-.248.64-.744.64zm.595 5.008h-1.2v-4.378h1.2v4.377zm4.274-.272c-.14.111-.318.198-.534.263a2.27 2.27 0 01-.665.096c-.975 0-1.462-.44-1.462-1.322v-2.25h-.797v-.893h.797v-1.006l1.2-.333v1.34h1.417v.892h-1.418v2.057c0 .403.201.605.604.605.257 0 .482-.082.674-.246l.184.797zm1.355-4.736c-.497 0-.745-.213-.745-.639 0-.432.248-.648.745-.648.496 0 .744.216.744.648 0 .426-.248.64-.745.64zm.595 5.008h-1.2v-4.378h1.2v4.377zm3.88-4.465c.473 0 .852.137 1.138.411.292.275.438.669.438 1.182v2.871h-1.2v-2.52c0-.666-.26-.999-.779-.999-.28 0-.52.1-.718.298-.192.198-.288.502-.288.91v2.312h-1.2v-4.378h1.077l.035.78c.146-.287.347-.502.604-.648.257-.146.554-.22.893-.22zm5.473 3.642c.478 0 .846.105 1.103.315.262.21.394.51.394.901 0 .467-.216.832-.648 1.095-.432.262-1.001.394-1.707.394-.73 0-1.273-.097-1.629-.29-.35-.192-.525-.455-.525-.787a.74.74 0 01.201-.517c.135-.146.333-.25.596-.315a1.152 1.152 0 01-.473-.341.85.85 0 01-.175-.534c0-.21.061-.391.184-.543a1.09 1.09 0 01.507-.341 1.368 1.368 0 01-.507-.49 1.387 1.387 0 01-.175-.701c0-.461.178-.823.534-1.085.362-.269.852-.403 1.47-.403.316 0 .61.038.885.114.075-.345.221-.613.437-.806.222-.198.52-.286.893-.262l.158.858a1.422 1.422 0 00-.184-.01c-.216 0-.397.039-.543.115a.656.656 0 00-.297.306 1.317 1.317 0 01.665 1.173c0 .455-.181.817-.543 1.086-.356.262-.846.393-1.47.393-.287 0-.55-.026-.788-.078-.228.058-.342.19-.342.394 0 .116.044.207.131.271.088.058.21.088.368.088h1.48zm-.85-2.89a.84.84 0 00-.577.202.68.68 0 00-.22.525c0 .222.074.4.22.534a.84.84 0 00.577.202c.24 0 .432-.068.578-.202a.678.678 0 00.228-.534.668.668 0 00-.228-.525c-.146-.134-.338-.201-.578-.201zm.088 4.772c.408 0 .724-.053.945-.158.222-.1.333-.227.333-.385a.31.31 0 00-.158-.28c-.099-.058-.265-.088-.499-.088h-1.19c-.485 0-.727.132-.727.394 0 .164.108.29.324.377.216.093.54.14.972.14z" fill="#282A39"/><rect opacity=".5" x="23" y="47.208" width="6" height="5.983" rx="2" fill="#665CC8"/><rect x="34.968" y="19.286" width="6" height="5.983" rx="2" fill="#6BDFFC"/><path d="M103.097 120.748a68.461 68.461 0 014.051-6.513m15.461-21.89a66.86 66.86 0 016.755-8.165c11.498-11.84 26.735-18.68 42.564-19.98" stroke="#4CD8FA" stroke-width="11" stroke-linecap="round" stroke-linejoin="round"/><path d="M15.002 1.113C7.706 4.477 4.312 9.124 3.484 14.76m4.439-2.338c2.501-5.095 3.616-4.981 6.846-7.125m146.232 101.507c6.173-5.133 8.246-10.498 7.583-16.156m-3.681 3.405c-1.094 5.567-2.2 5.745-4.763 8.65" stroke="#282A39" stroke-width=".755"/><path fill-rule="evenodd" clip-rule="evenodd" d="M7.735 20.58c.754 0 1.365-.61 1.365-1.361 0-.752-.611-1.361-1.365-1.361s-1.365.61-1.365 1.361c0 .752.611 1.361 1.365 1.361z" fill="#282A39"/><path d="M24.582 8.149c10.055-2.423 31.822-6.771 58.551-6.771 27.642 0 55.752 4.65 68.264 7.015 3.948.747 6.981 3.829 7.634 7.791 1.341 8.142 3.312 22.45 3.312 36.2 0 14.434-3.709 29.836-5.984 37.921-.964 3.427-3.771 5.946-7.278 6.59-10.618 1.949-34.4 5.693-60.358 5.693-25.73 0-49.75-3.679-60.734-5.641-3.727-.666-6.659-3.433-7.516-7.118-1.883-8.104-4.88-22.972-5.414-37.459-.53-14.419 1.363-28.89 2.658-36.803.597-3.655 3.268-6.551 6.865-7.418z" stroke="#616161" stroke-width=".755"/><defs><clipPath id="clip0"><path fill="#fff" d="M14 1.337h149v101.714H14z"/></clipPath><filter id="filter0_d" x="28" y="54.177" width="141" height="47.831" filterUnits="userSpaceOnUse" color-interpolation-filters="sRGB"><feFlood flood-opacity="0" result="BackgroundImageFix"/><feColorMatrix in="SourceAlpha" values="0 0 0 0 0 0 0 0 0 0 0 0 0 0 0 0 0 0 127 0"/><feOffset dy="5"/><feGaussianBlur stdDeviation="6"/><feColorMatrix values="0 0 0 0 0.319689 0 0 0 0 0.610473 0 0 0 0 0.683169 0 0 0 0.16 0"/><feBlend in2="BackgroundImageFix" result="effect1_dropShadow"/><feBlend in="SourceGraphic" in2="effect1_dropShadow" result="shape"/></filter></defs></svg>